<svg width="100" height="100" viewBox="0 0 100 100" fill="none" xmlns="http://www.w3.org/2000/svg">
<g clip-path="url(#clip0_284_1476)">
<g clip-path="url(#clip1_284_1476)">
<g clip-path="url(#clip2_284_1476)">
<g clip-path="url(#clip3_284_1476)">
<path d="M78.8411 39.0786C77.7213 41.4667 71.0144 47.2122 71.1367 51.6082C71.1534 52.1964 69.1315 52.5671 69.1134 52.1501C68.9191 47.6453 75.2502 43.3156 77.0862 38.8225C79.1687 33.7257 74.7456 31.427 72.4984 31.8272C71.7455 31.9617 69.1984 33.0274 68.0001 36.4761C67.8624 36.8719 65.9923 37.3752 65.9884 36.9182C65.9711 34.9516 65.5315 32.521 63.6434 31.6535C62.0751 30.9321 55.3714 31.6773 58.3207 39.5445C59.761 43.3877 67.2903 48.1119 68.013 51.6024C68.3837 53.3992 53.3707 53.8837 50.9104 51.7144C47.9579 49.1106 47.3214 41.5285 47.0183 37.7407C46.9971 38.1538 45.8284 54.2094 44.9564 72.8011C44.9365 73.2277 43.067 73.7348 42.9448 73.2432C40.5798 63.7459 39.1344 54.0408 36.8093 44.5371C36.4953 46.552 34.0016 57.7437 32.4577 61.0836C32.2878 61.4504 30.43 61.9833 30.446 61.5257C30.5509 58.5133 30.3875 54.5093 27.3333 52.9165C26.1305 52.2891 23.2835 52.2099 18.3083 51.9229C17.9023 51.8997 17.8714 51.6442 18.179 51.4409C18.5941 51.1629 19.1186 51.0567 19.6096 51.0567C21.443 51.056 26.0893 50.7658 29.2356 52.2112C31.0754 53.0574 31.8509 54.887 32.2215 56.7571C32.8387 54.7551 35.0936 43.2796 35.5351 39.5516C35.5872 39.1178 37.4129 38.6391 37.5468 39.1101C40.229 48.5385 41.7208 58.2398 43.8245 67.8027C43.6404 55.6528 45.9211 35.96 45.2885 27.1526C45.2505 26.6314 47.138 26.1094 47.3111 26.6101C48.5313 30.1309 49.0596 33.8814 49.1079 37.5792C49.2276 46.7135 51.9111 50.4273 52.8938 51.067C53.6654 51.5689 62.2971 51.4332 65.6885 51.4435C64.7303 46.3415 56.3966 44.6194 55.7453 37.7465C55.5175 35.3429 56.5452 32.678 58.6341 31.3285C64.0778 27.8129 67.233 32.5699 67.6642 34.0069C71.3401 28.1861 76.2573 30.7126 77.7741 32.5686C79.2459 34.3705 79.8489 36.9311 78.8411 39.0786Z" fill="#0A4D68"/>
</g>
</g>
<path d="M11.0657 37.7554L10.569 39.0294L0.601807 34.6981L1.39508 32.664L9.64647 33.1153L9.69025 33.0032L3.30972 27.7538L4.10627 25.7115L14.3754 29.2671L13.8787 30.5407L9.55401 29.0188L5.01941 27.4065L4.96377 27.5493L11.5738 33.0085L11.0395 34.3786L2.47882 33.9224L2.42318 34.0652L6.85673 35.9586L11.0657 37.7554Z" fill="#0A4D68"/>
<path d="M20.4552 21.9612C19.6108 22.9034 18.7464 23.4062 17.8619 23.4704C16.9733 23.5346 16.1015 23.1832 15.2456 22.4161L14.1443 21.4285C13.2741 20.6488 12.802 19.8264 12.7275 18.9624C12.6567 18.0979 13.0033 17.2396 13.7662 16.3879C14.2805 15.8139 14.8152 15.4309 15.37 15.2383C15.9288 15.0456 16.4909 15.0284 17.0572 15.1871C17.623 15.3422 18.1785 15.6637 18.7239 16.1526L18.9522 16.3572C19.0859 16.477 19.216 16.6031 19.3425 16.7348C19.4689 16.8669 19.5887 16.9999 19.7017 17.1349L18.8581 18.0759C18.6637 17.8868 18.4772 17.7105 18.298 17.5461C18.1168 17.38 17.9511 17.2294 17.8013 17.0948C17.4249 16.7573 17.0526 16.5331 16.6849 16.4222C16.3187 16.3093 15.9599 16.3101 15.6081 16.4255C15.2562 16.5405 14.9204 16.7769 14.5992 17.1349C14.1218 17.6676 13.9184 18.2047 13.9888 18.7468C14.0596 19.2889 14.3816 19.8166 14.9555 20.3309L15.5451 20.8595L15.6768 20.9666L16.2631 21.4919C16.522 21.7243 16.7888 21.8945 17.0629 22.0029C17.339 22.113 17.6238 22.1531 17.9171 22.1236C18.2129 22.0958 18.5124 21.9915 18.8155 21.8102C19.1187 21.6294 19.4251 21.3664 19.7348 21.0207C20.0944 20.6197 20.3767 20.1992 20.5812 19.7598C20.7862 19.3204 20.9335 18.8663 21.0235 18.3978L21.8262 19.2897C21.7538 19.718 21.6065 20.1595 21.3852 20.6136C21.1618 21.0697 20.8517 21.519 20.4552 21.9612ZM19.511 17.3476L15.5725 21.7411L14.8013 21.0497L18.7394 16.6562L19.511 17.3476Z" fill="#0A4D68"/>
<path d="M30.2394 14.3709C29.1507 15.0156 28.1754 15.2357 27.3122 15.0308C26.4457 14.825 25.7195 14.2277 25.1336 13.2388L24.3801 11.9665C23.7848 10.9613 23.5811 10.0351 23.7697 9.18822C23.962 8.34218 24.5503 7.62787 25.5342 7.04488C26.1973 6.65213 26.8225 6.44717 27.4091 6.43039C27.9999 6.41444 28.5416 6.56704 29.0337 6.8886C29.5271 7.20648 29.96 7.68023 30.3335 8.30986L30.4893 8.57373C30.581 8.72838 30.6673 8.88752 30.7483 9.05117C30.8293 9.21522 30.9034 9.37805 30.9709 9.54088L29.8834 10.1848C29.755 9.94631 29.6302 9.7217 29.5087 9.51101C29.386 9.29827 29.2731 9.10476 29.17 8.93171C28.9122 8.49682 28.6246 8.17117 28.3071 7.95475C27.9921 7.7371 27.6493 7.62991 27.2794 7.634C26.9096 7.63809 26.5177 7.76246 26.1041 8.00752C25.4884 8.37204 25.1332 8.82329 25.0379 9.36169C24.9426 9.89967 25.0911 10.5002 25.4839 11.1634L25.8872 11.8442L25.9809 11.9861L26.3819 12.6632C26.5594 12.9627 26.7623 13.2053 26.991 13.391C27.2209 13.5788 27.4807 13.7028 27.77 13.7625C28.0604 13.8247 28.3775 13.8153 28.7208 13.7339C29.064 13.6525 29.4355 13.4933 29.8348 13.2573C30.2983 12.9827 30.6935 12.6665 31.0212 12.3089C31.3485 11.9514 31.6255 11.5623 31.8521 11.1426L32.3496 12.2345C32.1516 12.6215 31.8787 12.9979 31.5309 13.3649C31.1807 13.7326 30.75 14.0681 30.2394 14.3709ZM30.725 9.68652L25.6487 12.6935L25.1206 11.802L30.1968 8.79547L30.725 9.68652Z" fill="#0A4D68"/>
<path d="M41.4204 10.1137C40.7977 10.265 40.2744 10.2929 39.8498 10.1971C39.4235 10.1047 39.0782 9.88867 38.8139 9.5491C38.5521 9.20913 38.3524 8.75583 38.215 8.18962L36.9786 3.10476L38.2992 2.7836L39.4971 7.71137C39.6256 8.23994 39.8412 8.59996 40.1435 8.79102C40.4491 8.98412 40.8877 9.01071 41.4592 8.87202C41.7841 8.79306 42.088 8.68096 42.3711 8.53491C42.6542 8.38927 42.9112 8.21867 43.1419 8.02352L43.2961 9.20136C43.0711 9.39814 42.7946 9.5761 42.4669 9.73566C42.1367 9.89849 41.7882 10.0245 41.4204 10.1137ZM41.6094 2.61423L35.8041 4.02567L35.5435 2.95502L41.4699 1.51413L41.6094 2.61423ZM38.1847 2.45345L36.9046 2.76478L36.3461 0.504027L37.6479 0L38.1847 2.45345Z" fill="#0A4D68"/>
<path d="M52.4315 9.34983C51.2418 9.30319 50.352 8.94645 49.7616 8.27918C49.1742 7.61478 48.9037 6.67955 48.9508 5.47349L49.0007 4.20687C49.0477 3.00613 49.3914 2.09913 50.0317 1.48546C50.6748 0.869332 51.5887 0.58459 52.7727 0.630819C53.9596 0.677458 54.8481 1.03257 55.4385 1.69738C56.0264 2.35891 56.2968 3.29005 56.2498 4.49039L56.2003 5.75741C56.1532 6.96348 55.8104 7.87498 55.1726 8.4911C54.5319 9.11009 53.6184 9.39647 52.4315 9.34983ZM52.4753 8.23214C53.2097 8.26077 53.7771 8.06481 54.1776 7.64342C54.5757 7.22204 54.7905 6.60059 54.8228 5.77828L54.8784 4.36234C54.9103 3.54534 54.7442 2.91285 54.3801 2.46446C54.0136 2.01608 53.4629 1.77756 52.7289 1.74892C51.9974 1.72029 51.4316 1.91502 51.0311 2.33314C50.6277 2.75125 50.4101 3.36901 50.3782 4.18601L50.3225 5.60195C50.2902 6.42427 50.4588 7.06125 50.8282 7.51251C51.1948 7.96376 51.7438 8.2035 52.4753 8.23214Z" fill="#0A4D68"/>
<path d="M64.8057 11.9625C63.6826 11.5673 62.9544 10.9696 62.621 10.1698C62.2868 9.37281 62.3154 8.41794 62.7073 7.30556L63.1365 6.086C63.53 4.9683 64.1073 4.20653 64.8678 3.8011C65.6296 3.39281 66.5693 3.38544 67.687 3.77901C68.018 3.89561 68.3097 4.03184 68.5621 4.18812C68.8109 4.34604 69.0261 4.51255 69.2073 4.68765C69.3914 4.86357 69.5387 5.03131 69.65 5.19045L69.3656 6.35969C69.1807 6.07782 68.9397 5.80985 68.6427 5.5562C68.3457 5.30214 67.964 5.09308 67.4972 4.92903C66.7494 4.66556 66.1201 4.67701 65.6096 4.96257C65.0965 5.24732 64.7009 5.78448 64.4231 6.57407L64.0157 7.73104C63.7432 8.50467 63.7174 9.16498 63.9379 9.71115C64.156 10.2565 64.6387 10.6607 65.3866 10.9238C65.8685 11.0935 66.3075 11.1733 66.7031 11.1635C67.1016 11.1545 67.4702 11.1013 67.8094 11.0039L67.2849 12.1061C66.9936 12.1851 66.634 12.2251 66.2056 12.2272C65.7802 12.2296 65.3134 12.1413 64.8057 11.9625Z" fill="#0A4D68"/>
<path d="M77.0139 8.74438L78.1198 9.54829L75.0874 13.7208C74.8309 14.0739 74.6558 14.418 74.5625 14.753C74.4713 15.0897 74.4848 15.4121 74.6026 15.7198C74.7245 16.0266 74.9753 16.3183 75.355 16.5944C75.7125 16.8542 76.0668 17.0126 76.4183 17.0698C76.7709 17.1247 77.1105 17.0968 77.437 16.9856C77.7675 16.8739 78.0674 16.6959 78.3374 16.4517L77.9602 17.3865L77.7221 17.2134C77.4337 17.4646 77.1068 17.6491 76.7419 17.7661C76.3769 17.8831 75.9854 17.9028 75.5677 17.8242C75.1504 17.7498 74.7151 17.5477 74.2614 17.2183C73.7341 16.835 73.3786 16.4247 73.1945 15.9869C73.0128 15.5508 72.9854 15.0856 73.113 14.591C73.2386 14.0984 73.498 13.5817 73.8912 13.0413L77.0139 8.74438ZM81.4982 12.0034L82.611 12.8122L77.7348 19.5221L76.622 18.7132L77.8379 17.1386L77.8399 17.0375L81.4982 12.0034Z" fill="#0A4D68"/>
<path d="M86.7921 22.214L87.4496 21.3242L87.6672 21.5856C88.3357 21.3066 88.9649 21.2215 89.5553 21.3303C90.1456 21.4387 90.6611 21.7856 91.1013 22.3699C91.2109 22.5155 91.2969 22.6546 91.359 22.788C91.4233 22.9193 91.4744 23.042 91.5116 23.1553L90.4987 24.028C90.4492 23.8889 90.3833 23.7416 90.3003 23.5857C90.2197 23.4286 90.1174 23.267 89.9926 23.1018C89.617 22.603 89.1523 22.2737 88.5992 22.1129C88.0436 21.9538 87.4414 21.9877 86.7921 22.214ZM82.7783 25.3216L81.9507 24.2231L88.575 19.2311L89.383 20.303L87.3849 21.7206L87.3682 21.863L82.7783 25.3216Z" fill="#0A4D68"/>
<path d="M88.4785 36.4434C88.0252 35.2623 87.9716 34.2636 88.3181 33.447C88.6663 32.6272 89.3765 32.0111 90.4492 31.5995L91.8304 31.0697C92.9211 30.6512 93.8682 30.6058 94.6712 30.9335C95.4731 31.2648 96.0786 31.9644 96.4885 33.0318C96.7647 33.7514 96.862 34.4019 96.7806 34.9833C96.6976 35.5683 96.4562 36.0768 96.0565 36.5084C95.6605 36.9413 95.1209 37.289 94.4376 37.5513L94.1513 37.6609C93.9835 37.7251 93.8121 37.7836 93.637 37.8364C93.4619 37.8888 93.2884 37.9346 93.1174 37.9735L92.6645 36.7936C92.9211 36.7069 93.1637 36.6213 93.3915 36.5371C93.6219 36.4516 93.8313 36.3726 94.0195 36.3002C94.4916 36.119 94.8607 35.8903 95.1274 35.6133C95.395 35.3392 95.5578 35.0193 95.6155 34.6539C95.6736 34.2886 95.6163 33.8815 95.4441 33.4327C95.1875 32.7646 94.8022 32.3388 94.2879 32.1542C93.7732 31.9701 93.1563 32.016 92.4371 32.2925L91.6982 32.576L91.5428 32.6444L90.8076 32.9266C90.4827 33.0514 90.2095 33.211 89.9885 33.4053C89.7648 33.6009 89.5991 33.8357 89.4915 34.1106C89.3814 34.3868 89.3376 34.7006 89.3605 35.0528C89.3835 35.4051 89.478 35.7978 89.6441 36.2311C89.8372 36.7339 90.0826 37.1769 90.3801 37.5594C90.6779 37.9424 91.0146 38.2803 91.391 38.574L90.2307 38.8817C89.8826 38.6219 89.5569 38.2897 89.2538 37.8855C88.9498 37.4784 88.6912 36.9977 88.4785 36.4434ZM93.0152 37.7067L90.9009 32.1984L91.868 31.8274L93.9819 37.3357L93.0152 37.7067Z" fill="#0A4D68"/>
<path d="M3.33846 65.8925L2.8418 64.6185L13.1097 61.0601L13.903 63.0942L7.52409 68.3476L7.56623 68.4556L15.8172 68.0048L16.6138 70.0466L6.64655 74.3775L6.14988 73.1035L10.3597 71.2977L14.7887 69.415L14.7331 69.2722L6.17238 69.7283L5.63972 68.3619L12.2481 62.899L12.1941 62.7599L7.64887 64.3677L3.33846 65.8925Z" fill="#0A4D68"/>
<path d="M14.0015 84.4585C13.1571 83.5163 12.7505 82.6015 12.7812 81.7129C12.8159 80.8247 13.261 79.9971 14.1169 79.2304L15.2182 78.2428C16.0884 77.4631 16.9557 77.0838 17.8214 77.1059C18.6887 77.1259 19.5049 77.5625 20.27 78.4163C20.7842 78.9903 21.1062 79.5643 21.2351 80.1382C21.368 80.7126 21.3247 81.2727 21.1054 81.8185C20.8877 82.3659 20.5073 82.883 19.9644 83.3698L19.7361 83.5744C19.6002 83.6959 19.4599 83.8108 19.3151 83.9184C19.1703 84.0297 19.0254 84.1353 18.8814 84.2351L18.0378 83.2941C18.2469 83.1215 18.4429 82.9554 18.6253 82.795C18.8082 82.6346 18.9755 82.4865 19.1281 82.3499C19.5045 82.0124 19.768 81.6671 19.9181 81.3136C20.0703 80.9622 20.1084 80.605 20.0323 80.243C19.9541 79.8825 19.7545 79.5238 19.4341 79.1658C18.9567 78.6331 18.4457 78.3713 17.9012 78.3807C17.355 78.3917 16.795 78.6548 16.221 79.1691L15.6319 79.6976L15.5108 79.8171L14.9216 80.3453C14.6647 80.5756 14.4671 80.821 14.3296 81.0817C14.1901 81.3439 14.1194 81.6229 14.1169 81.9179C14.1124 82.2149 14.1836 82.5242 14.3301 82.8449C14.4769 83.1661 14.7052 83.4991 15.0149 83.8448C15.3745 84.2457 15.7615 84.5722 16.1764 84.8238C16.5912 85.0754 17.0261 85.2714 17.4823 85.4113L16.5078 86.1121C16.0897 85.9935 15.6662 85.7983 15.2371 85.5263C14.8095 85.2566 14.398 84.9003 14.0015 84.4585ZM18.6879 84.0191L14.7523 79.6289L15.5234 78.9375L19.4591 83.3277L18.6879 84.0191Z" fill="#0A4D68"/>
<path d="M25.8219 93.7212C24.7333 93.0764 24.0705 92.3257 23.8328 91.469C23.5992 90.6115 23.7752 89.6885 24.361 88.6997L25.1146 87.4274C25.7103 86.4222 26.4238 85.7999 27.2559 85.5606C28.0893 85.3192 28.9991 85.4902 29.9851 86.0744C30.6483 86.4672 31.1273 86.918 31.4231 87.427C31.7226 87.9351 31.8494 88.4821 31.804 89.0683C31.761 89.6558 31.5536 90.2633 31.1821 90.8909L31.0259 91.1548C30.933 91.3115 30.8336 91.4633 30.7276 91.6093C30.6229 91.7591 30.5165 91.9035 30.4089 92.0418L29.3219 91.3974C29.4692 91.1699 29.6062 90.9527 29.7322 90.7449C29.8587 90.537 29.9736 90.3452 30.0779 90.1697C30.3357 89.7348 30.483 89.3261 30.5202 88.9435C30.5599 88.5623 30.4887 88.2108 30.3075 87.888C30.1246 87.5677 29.8268 87.2854 29.4131 87.0404C28.7974 86.6758 28.2316 86.5797 27.7153 86.7523C27.1978 86.927 26.7425 87.3464 26.3497 88.0091L25.9463 88.6903L25.867 88.8405L25.4636 89.5212C25.2876 89.8182 25.1731 90.1116 25.1203 90.4016C25.0659 90.6937 25.0823 90.9809 25.1686 91.2632C25.2537 91.548 25.4145 91.8212 25.6505 92.0835C25.887 92.3457 26.2049 92.5949 26.6042 92.8313C27.0677 93.1059 27.5349 93.3006 28.0058 93.416C28.4767 93.5313 28.9508 93.5874 29.4279 93.5841L28.7095 94.5451C28.275 94.5574 27.8123 94.4985 27.3213 94.3684C26.8329 94.2395 26.3329 94.0235 25.8219 93.7212ZM30.1594 91.8937L25.0868 88.8891L25.6145 87.9977L30.6875 91.0026L30.1594 91.8937Z" fill="#0A4D68"/>
<path d="M39.38 98.9108C38.7573 98.7594 38.2794 98.5438 37.9468 98.2636C37.6105 97.9858 37.4031 97.6352 37.3242 97.2126C37.2472 96.7928 37.2775 96.2986 37.4158 95.73L38.6525 90.6451L39.9728 90.9663L38.7749 95.894C38.6464 96.4226 38.6722 96.8428 38.8522 97.1537C39.033 97.4622 39.4106 97.6859 39.985 97.8254C40.3099 97.9044 40.6314 97.9441 40.9493 97.9449C41.2643 97.9474 41.5707 97.9142 41.8694 97.8447L41.4656 98.9616C41.1751 99.0331 40.8466 99.0638 40.4792 99.0544C40.1139 99.0479 39.7477 99 39.38 98.9108ZM42.9863 92.3384L37.1851 90.9278L37.4465 89.8531L43.3725 91.294L42.9863 92.3384ZM40.0231 90.6201L38.7426 90.3088L39.2846 88.0444L40.6715 88.1982L40.0231 90.6201Z" fill="#0A4D68"/>
<path d="M52.7688 99.9949C51.5819 100.042 50.6684 99.7552 50.0277 99.1362C49.3899 98.5197 49.0475 97.6086 49 96.4025L48.9505 95.1359C48.9035 93.938 49.1755 93.0069 49.7659 92.3421C50.3591 91.6777 51.2465 91.3221 52.4276 91.2759C53.6173 91.2293 54.532 91.514 55.1727 92.1306C55.8105 92.7471 56.1529 93.6541 56.1996 94.852L56.2491 96.119C56.2961 97.3251 56.0261 98.2603 55.4386 98.9247C54.8483 99.592 53.9585 99.9487 52.7688 99.9949ZM52.725 98.8772C53.4618 98.8482 54.0125 98.6084 54.3762 98.1576C54.7427 97.7064 54.9101 97.0698 54.8777 96.247L54.8221 94.8311C54.7902 94.017 54.5742 93.4004 54.1737 92.9823C53.776 92.5638 53.2086 92.3691 52.4713 92.3981C51.7427 92.4268 51.1937 92.6653 50.8243 93.1137C50.4577 93.562 50.2904 94.1933 50.3219 95.0074L50.3775 96.4234C50.4098 97.2457 50.6262 97.8675 51.0268 98.2885C51.4301 98.7095 51.9964 98.9059 52.725 98.8772Z" fill="#0A4D68"/>
<path d="M67.684 96.8472C66.561 97.2424 65.6192 97.233 64.8587 96.819C64.0985 96.407 63.5229 95.6452 63.131 94.5324L62.7014 93.3133C62.3087 92.198 62.2813 91.2428 62.6192 90.4474C62.9571 89.6521 63.6849 89.0577 64.8026 88.6641C65.1336 88.5475 65.4466 88.4727 65.7424 88.4383C66.0345 88.4027 66.3061 88.3966 66.5573 88.4195C66.8085 88.4424 67.0282 88.4804 67.2168 88.5344L67.7241 89.6251C67.407 89.5229 67.0528 89.4648 66.6608 89.4504C66.2677 89.4394 65.8389 89.5159 65.3754 89.6791C64.6275 89.9426 64.1431 90.346 63.9214 90.8893C63.7025 91.4322 63.732 92.0982 64.0102 92.8874L64.4172 94.0444C64.6897 94.818 65.0816 95.3494 65.5934 95.6379C66.1077 95.9255 66.7385 95.9373 67.4864 95.6739C67.9683 95.5041 68.3607 95.2913 68.6626 95.0356C68.9649 94.7799 69.219 94.5075 69.4248 94.2182L69.7067 95.4059C69.5291 95.6501 69.2738 95.9066 68.9412 96.1763C68.6111 96.4446 68.1921 96.668 67.684 96.8472Z" fill="#0A4D68"/>
<path d="M72.1372 85.1797L73.2434 84.3758L76.2758 88.5487C76.5323 88.9018 76.8056 89.1743 77.0957 89.3665C77.3857 89.5588 77.6962 89.6456 78.0276 89.6267C78.3549 89.6075 78.7096 89.459 79.0917 89.1808C79.4493 88.921 79.7095 88.633 79.8719 88.3168C80.0306 87.9997 80.1092 87.6679 80.1067 87.3218C80.1026 86.9732 80.0257 86.6329 79.8768 86.3007L80.6492 86.9479L80.4078 87.123C80.56 87.4732 80.6353 87.8401 80.6341 88.2239C80.6304 88.6089 80.5281 88.9873 80.3272 89.3588C80.1276 89.7327 79.8011 90.0841 79.3474 90.4139C78.8201 90.7972 78.3201 91.0087 77.8472 91.0484C77.3743 91.0881 76.923 90.9703 76.4938 90.6949C76.0643 90.4233 75.6531 90.017 75.26 89.4766L72.1372 85.1797ZM76.6186 81.9227L77.7347 81.1119L82.6109 87.8217L81.4948 88.633L80.3759 86.9876L80.2769 86.9569L76.6186 81.9227Z" fill="#0A4D68"/>
<path d="M85.3127 77.3051L84.2727 76.9156L84.4638 76.6346C84.0117 76.0688 83.756 75.4874 83.6979 74.8901C83.6419 74.2945 83.8342 73.7045 84.2748 73.1199C84.3828 72.9767 84.492 72.8548 84.6021 72.7541C84.7105 72.656 84.8144 72.5733 84.9134 72.5062L86.0311 73.2398C85.9092 73.3277 85.786 73.4321 85.6609 73.5523C85.534 73.6747 85.4076 73.8199 85.2812 73.9872C84.9073 74.4835 84.7191 75.0198 84.7174 75.5958C84.7138 76.1743 84.9122 76.7438 85.3127 77.3051ZM89.4026 80.3043L88.575 81.4028L81.9502 76.4108L82.7582 75.3389L84.6716 76.8686L84.8164 76.8481L89.4026 80.3043Z" fill="#0A4D68"/>
<path d="M96.5705 67.2958C96.1172 68.4769 95.4884 69.2562 94.6836 69.6338C93.8773 70.0078 92.938 69.9889 91.8649 69.5774L90.4841 69.0476C89.3934 68.6291 88.6603 68.0297 88.2851 67.2495C87.9075 66.4685 87.9239 65.5427 88.3342 64.4725C88.6104 63.7528 88.9745 63.205 89.427 62.8282C89.8778 62.4478 90.3957 62.2309 90.9812 62.1777C91.5678 62.1217 92.2016 62.2244 92.8823 62.4854L93.1687 62.5955C93.3389 62.6609 93.505 62.7333 93.6662 62.8131C93.8315 62.8912 93.9914 62.9718 94.1461 63.0549L93.6932 64.2348C93.4444 64.1276 93.2071 64.029 92.9813 63.939C92.7555 63.8494 92.5468 63.768 92.3562 63.6947C91.8841 63.5135 91.4566 63.437 91.0732 63.4644C90.6907 63.4894 90.356 63.6182 90.0684 63.851C89.7833 64.085 89.555 64.4262 89.3828 64.8746C89.1263 65.5427 89.1267 66.1167 89.3832 66.597C89.6421 67.0781 90.1318 67.4565 90.8511 67.7327L91.5899 68.0162L91.7515 68.0694L92.49 68.3529C92.8124 68.4765 93.1208 68.5403 93.4154 68.5435C93.7124 68.548 93.9931 68.4842 94.2569 68.3517C94.5233 68.2203 94.7659 68.0158 94.9847 67.7388C95.2036 67.4618 95.3959 67.1067 95.562 66.6735C95.7551 66.1707 95.8688 65.6773 95.9036 65.1937C95.9384 64.7102 95.9142 64.2331 95.8312 63.7635L96.899 64.3109C96.9841 64.7372 97.0033 65.2031 96.9575 65.7092C96.9121 66.2124 96.7832 66.7414 96.5705 67.2958ZM94.0421 63.3257L91.9299 68.8299L90.9628 68.4589L93.075 62.9547L94.0421 63.3257Z" fill="#0A4D68"/>
<path d="M0.686279 50.3176C0.686279 48.0266 2.54365 46.1692 4.83468 46.1692C7.12572 46.1692 8.98309 48.0266 8.98309 50.3176C8.98309 52.6086 7.12572 54.466 4.83468 54.466C2.54365 54.466 0.686279 52.6086 0.686279 50.3176Z" fill="#0A4D68"/>
<path d="M91.1013 50.3176C91.1013 48.0266 92.9587 46.1692 95.2497 46.1692C97.5408 46.1692 99.3981 48.0266 99.3981 50.3176C99.3981 52.6086 97.5408 54.466 95.2497 54.466C92.9587 54.466 91.1013 52.6086 91.1013 50.3176Z" fill="#0A4D68"/>
</g>
</g>
<defs>
<clipPath id="clip0_284_1476">
<rect width="100" height="100" fill="white"/>
</clipPath>
<clipPath id="clip1_284_1476">
<rect width="100" height="100" fill="white"/>
</clipPath>
<clipPath id="clip2_284_1476">
<rect width="61.3669" height="47.0377" fill="white" transform="translate(17.9727 26.4075)"/>
</clipPath>
<clipPath id="clip3_284_1476">
<rect width="61.3669" height="47.0377" fill="white" transform="translate(17.9727 26.4075)"/>
</clipPath>
</defs>
</svg>
