<svg width="396" height="144" viewBox="0 0 396 144" fill="none" xmlns="http://www.w3.org/2000/svg">
<g clip-path="url(#clip0_271_1000)">
<g clip-path="url(#clip1_271_1000)">
<g clip-path="url(#clip2_271_1000)">
<g clip-path="url(#clip3_271_1000)">
<g clip-path="url(#clip4_271_1000)">
<path d="M167.893 78.8312H163.64L164.938 45.1074H171.714L179.715 69.4898H180.074L188.075 45.1074H194.883L196.181 78.8312H191.927L191.452 64.6028L191.009 49.6673H190.534L182.196 74.9469H177.625L169.287 49.6673H168.812L168.337 64.6345L167.893 78.8312ZM213.903 79.4117C209.984 79.4117 207.028 78.4512 205.037 76.5301C203.053 74.6161 202.06 71.8718 202.06 68.2971V63.7056C202.06 60.0817 202.982 57.2916 204.826 55.3354C206.677 53.3721 209.379 52.3905 212.932 52.3905C215.325 52.3905 217.32 52.8338 218.917 53.7204C220.521 54.6071 221.728 55.8702 222.537 57.5097C223.347 59.1423 223.751 61.095 223.751 63.3679V64.3178C223.751 64.8808 223.73 65.4437 223.688 66.0066C223.639 66.5696 223.579 67.122 223.509 67.6638H219.582C219.617 66.8194 219.638 66.0207 219.645 65.2678C219.652 64.5078 219.656 63.8112 219.656 63.1779C219.656 61.6157 219.406 60.2928 218.906 59.2091C218.407 58.1255 217.661 57.2986 216.669 56.7287C215.67 56.1587 214.424 55.8737 212.932 55.8737C210.716 55.8737 209.051 56.514 207.94 57.7947C206.835 59.0825 206.283 60.9226 206.283 63.3151V65.7639L206.304 66.2916V68.751C206.304 69.8206 206.462 70.7881 206.779 71.6537C207.095 72.5121 207.595 73.2545 208.277 73.8808C208.953 74.5071 209.815 74.982 210.863 75.3057C211.905 75.6294 213.147 75.7913 214.589 75.7913C216.264 75.7913 217.823 75.5731 219.265 75.1369C220.708 74.6935 222.062 74.0954 223.329 73.3425L222.928 77.0368C221.788 77.7545 220.462 78.3316 218.949 78.7678C217.436 79.1971 215.754 79.4117 213.903 79.4117ZM222.611 67.6638H204.298V64.4445H222.611V67.6638ZM240.27 79.4117C236.344 79.4117 233.388 78.4512 231.404 76.5301C229.412 74.6161 228.417 71.8718 228.417 68.2971V63.7056C228.417 60.0817 229.342 57.2916 231.193 55.3354C233.036 53.3721 235.735 52.3905 239.288 52.3905C241.681 52.3905 243.679 52.8338 245.284 53.7204C246.881 54.6071 248.084 55.8702 248.894 57.5097C249.703 59.1423 250.108 61.095 250.108 63.3679V64.3178C250.108 64.8808 250.086 65.4437 250.044 66.0066C250.002 66.5696 249.946 67.122 249.875 67.6638H245.938C245.973 66.8194 245.995 66.0207 246.002 65.2678C246.016 64.5078 246.023 63.8112 246.023 63.1779C246.023 61.6157 245.769 60.2928 245.263 59.2091C244.763 58.1255 244.017 57.2986 243.025 56.7287C242.033 56.1587 240.787 55.8737 239.288 55.8737C237.072 55.8737 235.411 56.514 234.306 57.7947C233.195 59.0825 232.639 60.9226 232.639 63.3151V65.7639L232.67 66.2916V68.751C232.67 69.8206 232.829 70.7881 233.145 71.6537C233.462 72.5121 233.958 73.2545 234.634 73.8808C235.309 74.5071 236.171 74.982 237.22 75.3057C238.268 75.6294 239.514 75.7913 240.956 75.7913C242.624 75.7913 244.179 75.5731 245.622 75.1369C247.064 74.6935 248.419 74.0954 249.685 73.3425L249.295 77.0368C248.148 77.7545 246.818 78.3316 245.305 78.7678C243.792 79.1971 242.114 79.4117 240.27 79.4117ZM248.978 67.6638H230.665V64.4445H248.978V67.6638ZM265.17 79.3589C263.185 79.3589 261.585 79.0599 260.367 78.4617C259.157 77.8636 258.277 76.9559 257.728 75.7385C257.187 74.5282 256.916 73.0153 256.916 71.1998V54.9448H261.138V70.7037C261.138 72.3925 261.525 73.638 262.299 74.4402C263.073 75.2354 264.375 75.6329 266.204 75.6329C267.239 75.6329 268.238 75.5204 269.202 75.2952C270.159 75.063 271.06 74.7358 271.904 74.3136L271.503 77.9868C270.68 78.409 269.712 78.7432 268.6 78.9895C267.495 79.2358 266.352 79.3589 265.17 79.3589ZM271.239 56.8764H252.694V53.446H271.64L271.239 56.8764ZM261.032 53.8682H256.937L256.916 46.6379L261.212 46.0785L261.032 53.8682ZM286.913 79.4961C283.219 79.4961 280.418 78.4969 278.511 76.4985C276.605 74.5 275.651 71.6255 275.651 67.8749V63.9484C275.651 60.2189 276.608 57.3584 278.522 55.367C280.443 53.3827 283.24 52.3905 286.913 52.3905C290.608 52.3905 293.408 53.3827 295.315 55.367C297.229 57.3584 298.186 60.2189 298.186 63.9484V67.8749C298.186 71.6255 297.229 74.5 295.315 76.4985C293.408 78.4969 290.608 79.4961 286.913 79.4961ZM286.913 76.0024C289.2 76.0024 290.938 75.3268 292.128 73.9758C293.317 72.6177 293.911 70.665 293.911 68.1177V63.7056C293.911 61.1724 293.317 59.2337 292.128 57.8897C290.938 56.5457 289.2 55.8737 286.913 55.8737C284.648 55.8737 282.916 56.5457 281.72 57.8897C280.524 59.2337 279.926 61.1724 279.926 63.7056V68.1177C279.926 70.665 280.524 72.6177 281.72 73.9758C282.916 75.3268 284.648 76.0024 286.913 76.0024ZM314.04 79.4117C310.346 79.4117 307.598 78.4125 305.797 76.414C303.988 74.4156 303.084 71.5868 303.084 67.9277V63.9167C303.084 60.2435 303.992 57.4183 305.807 55.4409C307.616 53.4566 310.36 52.4644 314.04 52.4644C315.131 52.4644 316.123 52.5664 317.017 52.7705C317.917 52.9745 318.723 53.2384 319.434 53.5621C320.145 53.8858 320.746 54.2236 321.239 54.5754L321.608 58.3014C320.785 57.6681 319.807 57.1298 318.674 56.6864C317.534 56.2502 316.2 56.032 314.673 56.032C312.211 56.032 310.378 56.7146 309.174 58.0797C307.964 59.4378 307.359 61.4187 307.359 64.0223V67.8221C307.359 70.3765 307.964 72.3397 309.174 73.7119C310.378 75.0841 312.211 75.7702 314.673 75.7702C316.257 75.7702 317.625 75.5485 318.779 75.1052C319.926 74.6689 320.95 74.1341 321.851 73.5008L321.45 77.269C320.676 77.7968 319.666 78.2858 318.421 78.7362C317.168 79.1865 315.708 79.4117 314.04 79.4117ZM326.706 53.0766H330.95V69.0993C330.95 70.4504 331.14 71.6325 331.519 72.6458C331.899 73.6591 332.519 74.4402 333.377 74.9891C334.243 75.545 335.404 75.8229 336.86 75.8229C338.233 75.8229 339.411 75.5731 340.396 75.0735C341.382 74.5669 342.187 73.8738 342.814 72.9942C343.44 72.1146 343.866 71.1224 344.091 70.0176L344.861 73.0469H343.932C343.672 74.208 343.19 75.2706 342.486 76.2346C341.783 77.1916 340.836 77.9551 339.647 78.5251C338.458 79.1021 336.994 79.3906 335.256 79.3906C333.229 79.3906 331.586 79.0071 330.327 78.2401C329.074 77.4731 328.156 76.3542 327.572 74.8835C326.995 73.4128 326.706 71.6396 326.706 69.5637V53.0766ZM343.911 53.0766H348.186V78.8312H343.911L344.091 72.6564L343.911 72.3925V53.0766ZM359.206 63.0723L358.235 59.7791L359.29 59.7263C359.853 57.5449 360.821 55.8244 362.193 54.5648C363.565 53.3053 365.384 52.6755 367.65 52.6755C368.213 52.6755 368.719 52.7212 369.17 52.8127C369.62 52.8971 370.021 53.0027 370.373 53.1293L370.637 57.267C370.194 57.1262 369.705 57.0136 369.17 56.9292C368.635 56.8377 368.04 56.792 367.386 56.792C365.451 56.792 363.769 57.3303 362.341 58.4069C360.905 59.4836 359.86 61.0387 359.206 63.0723ZM359.417 78.8312H355.142V53.0766H359.311L359.1 60.6763L359.417 60.9929V78.8312ZM385.646 79.4117C381.727 79.4117 378.771 78.4512 376.78 76.5301C374.796 74.6161 373.803 71.8718 373.803 68.2971V63.7056C373.803 60.0817 374.725 57.2916 376.569 55.3354C378.42 53.3721 381.122 52.3905 384.675 52.3905C387.068 52.3905 389.063 52.8338 390.66 53.7204C392.264 54.6071 393.471 55.8702 394.28 57.5097C395.09 59.1423 395.494 61.095 395.494 63.3679V64.3178C395.494 64.8808 395.47 65.4437 395.42 66.0066C395.378 66.5696 395.322 67.122 395.252 67.6638H391.325C391.36 66.8194 391.381 66.0207 391.388 65.2678C391.395 64.5078 391.399 63.8112 391.399 63.1779C391.399 61.6157 391.149 60.2928 390.65 59.2091C390.15 58.1255 389.4 57.2986 388.401 56.7287C387.409 56.1587 386.167 55.8737 384.675 55.8737C382.459 55.8737 380.794 56.514 379.683 57.7947C378.578 59.0825 378.026 60.9226 378.026 63.3151V65.7639L378.047 66.2916V68.751C378.047 69.8206 378.205 70.7881 378.522 71.6537C378.838 72.5121 379.334 73.2545 380.01 73.8808C380.692 74.5071 381.554 74.982 382.596 75.3057C383.644 75.6294 384.89 75.7913 386.332 75.7913C388.007 75.7913 389.566 75.5731 391.008 75.1369C392.451 74.6935 393.805 74.0954 395.072 73.3425L394.671 77.0368C393.531 77.7545 392.205 78.3316 390.692 78.7678C389.179 79.1971 387.497 79.4117 385.646 79.4117ZM394.354 67.6638H376.041V64.4445H394.354V67.6638Z" fill="currentColor"/>
</g>
</g>
<g clip-path="url(#clip5_271_1000)">
<g clip-path="url(#clip6_271_1000)">
<path d="M167.452 92.304L166.403 92.8875L164.908 90.3268C164.711 89.9918 164.517 89.6692 164.326 89.359C164.135 89.0475 163.898 88.7028 163.614 88.3248H165.298L167.452 92.304ZM168.908 90.3268L167.391 92.8875L166.413 92.304L168.542 88.3248H170.174C169.975 88.6086 169.805 88.8599 169.666 89.0787C169.526 89.2988 169.396 89.5072 169.277 89.7038C169.16 89.899 169.036 90.1067 168.908 90.3268ZM166.174 93.521V92.2022H167.62V93.521C167.62 94.0208 167.623 94.4625 167.63 94.846C167.637 95.2309 167.659 95.5244 167.695 95.7265H166.098C166.135 95.5244 166.157 95.2309 166.164 94.846C166.171 94.4625 166.174 94.0208 166.174 93.521ZM170.86 93.1554C170.86 92.5739 170.975 92.0824 171.207 91.6809C171.438 91.278 171.746 90.9727 172.131 90.765C172.517 90.5574 172.938 90.4535 173.394 90.4535C173.874 90.4535 174.297 90.5574 174.662 90.765C175.027 90.9727 175.312 91.278 175.518 91.6809C175.724 92.0824 175.828 92.5739 175.828 93.1554C175.828 93.737 175.712 94.2278 175.481 94.6279C175.249 95.0294 174.941 95.334 174.554 95.5417C174.17 95.7494 173.749 95.8532 173.292 95.8532C172.815 95.8532 172.395 95.7494 172.031 95.5417C171.666 95.334 171.379 95.0294 171.171 94.6279C170.964 94.2278 170.86 93.737 170.86 93.1554ZM172.278 93.1554C172.278 93.6387 172.369 94.0194 172.55 94.2977C172.73 94.5746 172.995 94.7131 173.344 94.7131C173.672 94.7131 173.931 94.5746 174.122 94.2977C174.314 94.0194 174.409 93.6387 174.409 93.1554C174.409 92.6695 174.318 92.2873 174.137 92.009C173.956 91.7321 173.691 91.5937 173.344 91.5937C173.016 91.5937 172.756 91.7321 172.565 92.009C172.374 92.2873 172.278 92.6695 172.278 93.1554ZM182.166 95.7265H180.822C180.774 95.6186 180.722 95.4794 180.667 95.3091C180.611 95.1374 180.57 94.9637 180.542 94.7878C180.246 95.1367 179.935 95.4012 179.611 95.5812C179.289 95.7625 178.954 95.8532 178.606 95.8532C177.549 95.8532 177.02 95.1263 177.02 93.6726C177.02 93.649 177.02 93.5646 177.02 93.4192C177.02 93.2738 177.02 93.1091 177.02 92.9249C177.02 92.7408 177.02 92.576 177.02 92.4306C177.02 92.2853 177.02 92.2008 177.02 92.1773C177.02 91.8561 177.014 91.5812 177.003 91.3528C176.993 91.1243 176.965 90.8585 176.918 90.5553H178.438V93.3694C178.438 93.829 178.488 94.1627 178.588 94.3704C178.687 94.5781 178.866 94.6819 179.123 94.6819C179.279 94.6819 179.443 94.6245 179.616 94.5095C179.787 94.3946 179.947 94.2541 180.093 94.0879C180.241 93.9232 180.349 93.7626 180.415 93.6061V92.1773C180.415 91.9544 180.414 91.7598 180.411 91.5937C180.407 91.4289 180.397 91.2662 180.382 91.1056C180.368 90.945 180.346 90.7616 180.316 90.5553H181.836V93.4441C181.836 93.9343 181.864 94.3662 181.921 94.7401C181.979 95.1139 182.061 95.4427 182.166 95.7265ZM184.752 93.0391V95.7265H183.331V92.6092C183.331 92.1122 183.303 91.6892 183.248 91.3403C183.191 90.9928 183.134 90.7311 183.078 90.5553H184.471C184.499 90.6259 184.525 90.7235 184.55 90.8481C184.575 90.9741 184.599 91.1008 184.623 91.2282C184.648 91.3569 184.665 91.4622 184.675 91.5438C184.921 91.1922 185.192 90.9222 185.487 90.7339C185.78 90.547 186.042 90.4535 186.272 90.4535C186.589 90.4535 186.844 90.5407 187.038 90.7152C187.231 90.8883 187.37 91.1188 187.458 91.4068C187.546 91.6934 187.591 92.009 187.591 92.3538L186.459 92.5324C186.442 92.3026 186.387 92.1177 186.293 91.9779C186.197 91.8367 186.041 91.7661 185.825 91.7661C185.715 91.7661 185.586 91.8291 185.441 91.955C185.296 92.0797 185.159 92.2389 185.032 92.4327C184.905 92.6279 184.811 92.8301 184.752 93.0391ZM190.606 89.5916V88.3248H196.562V89.5916C196.381 89.5473 196.193 89.5196 195.998 89.5086C195.804 89.4961 195.604 89.4899 195.397 89.4899H194.297V93.6331C194.297 94.1052 194.303 94.5241 194.315 94.8896C194.326 95.2551 194.354 95.5341 194.398 95.7265H192.752C192.794 95.5341 192.822 95.2551 192.835 94.8896C192.846 94.5241 192.851 94.1052 192.851 93.6331V89.4899H191.771C191.569 89.4899 191.37 89.4961 191.173 89.5086C190.978 89.5196 190.789 89.5473 190.606 89.5916ZM198.996 93.0391V95.7265H197.578V92.6092C197.578 92.1122 197.55 91.6892 197.493 91.3403C197.438 90.9928 197.381 90.7311 197.323 90.5553H198.718C198.745 90.6259 198.771 90.7235 198.797 90.8481C198.822 90.9741 198.846 91.1008 198.87 91.2282C198.893 91.3569 198.91 91.4622 198.92 91.5438C199.167 91.1922 199.438 90.9222 199.732 90.7339C200.027 90.547 200.289 90.4535 200.519 90.4535C200.836 90.4535 201.091 90.5407 201.283 90.7152C201.476 90.8883 201.616 91.1188 201.705 91.4068C201.792 91.6934 201.836 92.009 201.836 92.3538L200.706 92.5324C200.689 92.3026 200.633 92.1177 200.537 91.9779C200.443 91.8367 200.288 91.7661 200.072 91.7661C199.96 91.7661 199.831 91.8291 199.686 91.955C199.541 92.0797 199.405 92.2389 199.279 92.4327C199.152 92.6279 199.057 92.8301 198.996 93.0391ZM207.767 95.7265H206.425C206.377 95.6186 206.325 95.4794 206.27 95.3091C206.214 95.1374 206.173 94.9637 206.145 94.7878C205.847 95.1367 205.537 95.4012 205.214 95.5812C204.892 95.7625 204.557 95.8532 204.209 95.8532C203.15 95.8532 202.621 95.1263 202.621 93.6726C202.621 93.649 202.621 93.5646 202.621 93.4192C202.621 93.2738 202.621 93.1091 202.621 92.9249C202.621 92.7408 202.621 92.576 202.621 92.4306C202.621 92.2853 202.621 92.2008 202.621 92.1773C202.621 91.8561 202.616 91.5812 202.606 91.3528C202.596 91.1243 202.568 90.8585 202.521 90.5553H204.041V93.3694C204.041 93.829 204.091 94.1627 204.191 94.3704C204.29 94.5781 204.469 94.6819 204.726 94.6819C204.882 94.6819 205.045 94.6245 205.217 94.5095C205.39 94.3946 205.55 94.2541 205.696 94.0879C205.843 93.9232 205.95 93.7626 206.018 93.6061V92.1773C206.018 91.9544 206.017 91.7598 206.014 91.5937C206.01 91.4289 206 91.2662 205.985 91.1056C205.97 90.945 205.947 90.7616 205.916 90.5553H207.439V93.4441C207.439 93.9343 207.467 94.3662 207.524 94.7401C207.582 95.1139 207.663 95.4427 207.767 95.7265ZM212.787 90.8585L212.589 92.0506C212.4 91.9523 212.161 91.8477 211.873 91.737C211.583 91.6248 211.263 91.5688 210.911 91.5688C210.614 91.5688 210.408 91.6193 210.294 91.7204C210.181 91.8228 210.124 91.9246 210.124 92.0257C210.124 92.106 210.147 92.1752 210.193 92.2333C210.238 92.2901 210.333 92.3434 210.477 92.3933C210.621 92.4417 210.842 92.4964 211.14 92.5573C211.491 92.6252 211.813 92.7207 212.105 92.8439C212.398 92.9672 212.631 93.1319 212.805 93.3382C212.98 93.5445 213.067 93.8083 213.067 94.1295C213.067 94.4535 212.969 94.7456 212.772 95.0059C212.575 95.2662 212.311 95.4725 211.979 95.6248C211.645 95.7771 211.273 95.8532 210.861 95.8532C210.407 95.8532 209.989 95.7951 209.607 95.6788C209.226 95.5625 208.926 95.4261 208.706 95.2696L208.984 94.0277C209.235 94.234 209.54 94.3995 209.9 94.5241C210.26 94.6501 210.589 94.7131 210.886 94.7131C211.126 94.7131 211.321 94.6667 211.472 94.5739C211.621 94.4798 211.696 94.3738 211.696 94.2562C211.696 94.108 211.619 93.9772 211.464 93.8636C211.309 93.7501 210.989 93.6407 210.506 93.5355C210.026 93.4317 209.66 93.3071 209.408 93.1617C209.156 93.0163 208.984 92.8522 208.893 92.6695C208.801 92.4867 208.755 92.2887 208.755 92.0755C208.755 91.9509 208.789 91.7979 208.857 91.6165C208.925 91.4365 209.041 91.2572 209.204 91.0786C209.369 90.9014 209.594 90.7533 209.879 90.6342C210.164 90.5137 210.525 90.4535 210.961 90.4535C211.374 90.4535 211.732 90.4964 212.037 90.5823C212.341 90.6681 212.591 90.7602 212.787 90.8585ZM217.603 94.3019V95.4379C217.363 95.5902 217.132 95.6975 216.909 95.7598C216.686 95.8221 216.483 95.8532 216.301 95.8532C215.982 95.8532 215.691 95.8103 215.428 95.7245C215.165 95.6386 214.955 95.4863 214.797 95.2676C214.639 95.0502 214.56 94.747 214.56 94.3579C214.56 93.469 214.56 92.5809 214.56 91.6934C214.56 90.8059 214.56 89.9191 214.56 89.033H215.981C215.981 89.7571 215.981 90.4812 215.981 91.2053C215.981 91.9308 215.981 92.657 215.981 93.3839C215.981 93.766 216.003 94.0499 216.047 94.2354C216.091 94.4223 216.161 94.5435 216.255 94.5988C216.349 94.6542 216.472 94.6819 216.625 94.6819C216.868 94.6819 217.194 94.5552 217.603 94.3019ZM217.528 90.63V91.6456H213.599V90.63H217.528ZM223.054 93.4441H219.16V92.5324H221.76C221.76 92.178 221.684 91.9204 221.53 91.7598C221.376 91.5992 221.149 91.5189 220.849 91.5189C220.483 91.5189 220.212 91.6449 220.035 91.8969C219.857 92.1475 219.769 92.5705 219.769 93.1658C219.769 93.703 219.877 94.0949 220.093 94.3413C220.309 94.5891 220.627 94.7131 221.046 94.7131C221.377 94.7131 221.702 94.6743 222.022 94.5968C222.341 94.5178 222.658 94.3856 222.973 94.2001L223.079 95.3465C222.714 95.532 222.361 95.6629 222.022 95.739C221.682 95.8152 221.314 95.8532 220.919 95.8532C220.472 95.8532 220.056 95.7535 219.671 95.5542C219.286 95.3548 218.976 95.0592 218.741 94.6674C218.505 94.2755 218.388 93.7923 218.388 93.2178C218.388 92.6556 218.49 92.1683 218.695 91.7557C218.9 91.3445 219.191 91.0246 219.569 90.7962C219.949 90.5677 220.399 90.4535 220.919 90.4535C221.344 90.4535 221.695 90.5269 221.97 90.6737C222.246 90.8204 222.462 91.0177 222.62 91.2655C222.777 91.512 222.888 91.7882 222.953 92.0942C223.016 92.4002 223.048 92.7117 223.048 93.0288C223.048 93.0758 223.049 93.1451 223.05 93.2364C223.053 93.3278 223.054 93.3971 223.054 93.4441ZM227.667 87.6145H229.214V93.0391C229.214 93.6774 229.25 94.2139 229.322 94.6487C229.396 95.0834 229.486 95.4427 229.594 95.7265H228.199C228.163 95.6449 228.118 95.5209 228.066 95.3548C228.013 95.1873 227.965 95.0156 227.92 94.8397C227.695 95.1637 227.434 95.4136 227.139 95.5895C226.846 95.7653 226.523 95.8532 226.172 95.8532C225.756 95.8532 225.39 95.7522 225.073 95.55C224.757 95.3465 224.511 95.0599 224.334 94.6902C224.156 94.3192 224.068 93.8872 224.068 93.3943C224.068 92.7962 224.179 92.277 224.402 91.8367C224.625 91.3978 224.925 91.0572 225.301 90.8149C225.678 90.574 226.095 90.4535 226.552 90.4535C226.751 90.4535 226.962 90.4971 227.185 90.5844C227.408 90.673 227.611 90.7726 227.794 90.8834V89.4649C227.794 89.0593 227.785 88.7028 227.767 88.3954C227.747 88.088 227.714 87.8277 227.667 87.6145ZM227.794 93.6975V91.9841C227.561 91.8692 227.355 91.7882 227.175 91.7411C226.996 91.6941 226.788 91.6705 226.552 91.6705C226.376 91.6705 226.206 91.7328 226.043 91.8574C225.878 91.9834 225.745 92.1627 225.642 92.3953C225.538 92.6279 225.486 92.9104 225.486 93.2427C225.486 94.2229 225.808 94.7131 226.45 94.7131C226.629 94.7131 226.806 94.6639 226.982 94.5656C227.157 94.4673 227.317 94.3406 227.459 94.1856C227.6 94.0305 227.712 93.8678 227.794 93.6975ZM233.598 93.4192V90.657C233.598 90.16 233.595 89.6975 233.588 89.2697C233.581 88.8419 233.559 88.5269 233.522 88.3248C233.634 88.3179 233.789 88.3109 233.987 88.304C234.185 88.2971 234.401 88.2909 234.635 88.2853C234.87 88.2812 235.103 88.2777 235.335 88.2749C235.566 88.2735 235.773 88.2729 235.956 88.2729C236.237 88.2729 236.545 88.2992 236.88 88.3518C237.213 88.4044 237.547 88.5041 237.881 88.6508C238.213 88.7976 238.517 89.008 238.792 89.2822C239.068 89.5563 239.29 89.9128 239.457 90.3517C239.625 90.7906 239.708 91.3313 239.708 91.9737C239.708 92.576 239.626 93.0945 239.461 93.5293C239.298 93.9626 239.078 94.3247 238.803 94.6155C238.527 94.9062 238.221 95.136 237.885 95.305C237.548 95.4739 237.204 95.595 236.851 95.6684C236.498 95.7404 236.164 95.7764 235.85 95.7764C235.677 95.7764 235.461 95.7743 235.204 95.7702C234.945 95.7646 234.687 95.7584 234.429 95.7515C234.173 95.7445 233.958 95.739 233.783 95.7349C233.609 95.7293 233.522 95.7265 233.522 95.7265C233.559 95.5244 233.58 95.2143 233.586 94.7961C233.591 94.378 233.596 93.919 233.598 93.4192ZM235.044 89.4338V94.5552C235.142 94.5649 235.272 94.576 235.432 94.5885C235.591 94.5995 235.771 94.6051 235.972 94.6051C236.35 94.6051 236.715 94.5227 237.067 94.3579C237.418 94.1918 237.708 93.9232 237.937 93.5521C238.164 93.1797 238.277 92.6875 238.277 92.0755C238.277 91.4026 238.179 90.8723 237.983 90.4847C237.785 90.0956 237.513 89.8187 237.168 89.6539C236.824 89.4906 236.431 89.4089 235.991 89.4089C235.852 89.4089 235.687 89.4116 235.494 89.4172C235.302 89.4213 235.152 89.4269 235.044 89.4338ZM241.127 90.5553H242.622C242.622 90.8086 242.622 91.0786 242.622 91.3652C242.622 91.6532 242.622 91.9315 242.622 92.2001C242.622 92.4687 242.622 92.7027 242.622 92.9021C242.622 93.1015 242.622 93.2399 242.622 93.3174C242.622 93.5348 242.627 93.7979 242.637 94.1066C242.645 94.4154 242.657 94.7172 242.672 95.0121C242.687 95.3056 242.704 95.5438 242.724 95.7265H241.204C241.204 95.4829 241.204 95.197 241.204 94.8688C241.204 94.5421 241.204 94.2153 241.204 93.8886C241.204 93.5618 241.204 93.2787 241.204 93.0391C241.204 92.5463 241.199 92.0755 241.191 91.6269C241.183 91.1797 241.161 90.8225 241.127 90.5553ZM241.025 88.7048C241.025 88.4445 241.109 88.2313 241.276 88.0652C241.444 87.899 241.656 87.816 241.914 87.816C242.174 87.816 242.387 87.899 242.552 88.0652C242.718 88.2313 242.801 88.4445 242.801 88.7048C242.801 88.9679 242.718 89.1811 242.552 89.3445C242.387 89.5093 242.174 89.5916 241.914 89.5916C241.656 89.5916 241.444 89.5093 241.276 89.3445C241.109 89.1811 241.025 88.9679 241.025 88.7048ZM248.911 90.8336V95.5999C248.911 96.0457 248.839 96.4278 248.697 96.7463C248.554 97.0633 248.364 97.3222 248.126 97.523C247.888 97.7251 247.621 97.8733 247.326 97.9674C247.03 98.0616 246.729 98.1087 246.425 98.1087C245.976 98.1087 245.573 98.0484 245.216 97.928C244.859 97.8061 244.56 97.6469 244.321 97.4503L244.753 96.3911C244.965 96.5628 245.193 96.7027 245.438 96.8106C245.683 96.92 245.945 96.9747 246.223 96.9747C246.435 96.9747 246.639 96.9353 246.834 96.8563C247.028 96.7788 247.186 96.6521 247.307 96.4763C247.429 96.3004 247.49 96.0671 247.49 95.7764V94.8397C247.233 95.154 246.953 95.3846 246.651 95.5313C246.348 95.6781 246.061 95.7515 245.791 95.7515C245.491 95.7515 245.207 95.6774 244.94 95.5293C244.673 95.3797 244.456 95.1423 244.29 94.8169C244.125 94.4902 244.043 94.0582 244.043 93.521C244.043 93.1319 244.097 92.7553 244.207 92.3912C244.316 92.0257 244.486 91.6968 244.716 91.4047C244.945 91.1126 245.24 90.8806 245.598 90.709C245.957 90.5387 246.386 90.4535 246.886 90.4535C247.218 90.4535 247.564 90.4944 247.924 90.576C248.284 90.6563 248.613 90.7422 248.911 90.8336ZM247.49 93.6165V91.8637C247.226 91.728 246.963 91.6601 246.703 91.6601C246.407 91.6601 246.167 91.7398 245.984 91.899C245.802 92.0568 245.669 92.2583 245.586 92.5033C245.503 92.7484 245.461 93.0031 245.461 93.2676C245.461 93.7605 245.541 94.0969 245.7 94.2769C245.859 94.4555 246.059 94.5448 246.298 94.5448C246.484 94.5448 246.689 94.4645 246.915 94.3039C247.139 94.1433 247.331 93.9142 247.49 93.6165ZM250.379 90.5553H251.874C251.874 90.8086 251.874 91.0786 251.874 91.3652C251.874 91.6532 251.874 91.9315 251.874 92.2001C251.874 92.4687 251.874 92.7027 251.874 92.9021C251.874 93.1015 251.874 93.2399 251.874 93.3174C251.874 93.5348 251.879 93.7979 251.889 94.1066C251.897 94.4154 251.909 94.7172 251.924 95.0121C251.939 95.3056 251.957 95.5438 251.976 95.7265H250.456C250.456 95.4829 250.456 95.197 250.456 94.8688C250.456 94.5421 250.456 94.2153 250.456 93.8886C250.456 93.5618 250.456 93.2787 250.456 93.0391C250.456 92.5463 250.452 92.0755 250.443 91.6269C250.435 91.1797 250.414 90.8225 250.379 90.5553ZM250.277 88.7048C250.277 88.4445 250.361 88.2313 250.529 88.0652C250.696 87.899 250.909 87.816 251.166 87.816C251.426 87.816 251.639 87.899 251.804 88.0652C251.97 88.2313 252.053 88.4445 252.053 88.7048C252.053 88.9679 251.97 89.1811 251.804 89.3445C251.639 89.5093 251.426 89.5916 251.166 89.5916C250.909 89.5916 250.696 89.5093 250.529 89.3445C250.361 89.1811 250.277 88.9679 250.277 88.7048ZM256.946 94.3019V95.4379C256.705 95.5902 256.473 95.6975 256.25 95.7598C256.027 95.8221 255.824 95.8532 255.642 95.8532C255.325 95.8532 255.034 95.8103 254.769 95.7245C254.506 95.6386 254.296 95.4863 254.138 95.2676C253.982 95.0502 253.903 94.747 253.903 94.3579C253.903 93.469 253.903 92.5809 253.903 91.6934C253.903 90.8059 253.903 89.9191 253.903 89.033H255.322C255.322 89.7571 255.322 90.4812 255.322 91.2053C255.322 91.9308 255.322 92.657 255.322 93.3839C255.322 93.766 255.344 94.0499 255.388 94.2354C255.433 94.4223 255.502 94.5435 255.596 94.5988C255.692 94.6542 255.815 94.6819 255.966 94.6819C256.209 94.6819 256.536 94.5552 256.946 94.3019ZM256.869 90.63V91.6456H252.94V90.63H256.869ZM263.212 95.7265H261.864C261.815 95.6449 261.77 95.5106 261.727 95.3236C261.682 95.1353 261.648 94.9394 261.623 94.7359C261.597 94.531 261.583 94.3662 261.583 94.2416V93.9529C261.459 94.2423 261.285 94.5338 261.062 94.8273C260.839 95.1194 260.579 95.3631 260.281 95.5583C259.984 95.7549 259.658 95.8532 259.303 95.8532C258.877 95.8532 258.517 95.6649 258.223 95.2883C257.928 94.9117 257.781 94.3648 257.781 93.6477C257.781 93.2448 257.84 92.8536 257.959 92.4743C258.077 92.0935 258.259 91.7508 258.506 91.4462C258.753 91.143 259.068 90.9014 259.448 90.7214C259.831 90.5428 260.284 90.4535 260.809 90.4535C261.177 90.4535 261.543 90.4743 261.905 90.5158C262.27 90.5587 262.595 90.6141 262.881 90.682V93.0391C262.881 93.6774 262.912 94.2139 262.973 94.6487C263.034 95.0834 263.113 95.4427 263.212 95.7265ZM261.432 92.0257V91.6913C261.361 91.6733 261.258 91.6518 261.122 91.6269C260.987 91.602 260.811 91.5895 260.595 91.5895C260.24 91.5895 259.961 91.6871 259.758 91.8824C259.556 92.079 259.412 92.3344 259.328 92.6487C259.244 92.963 259.201 93.296 259.201 93.6477C259.201 93.9453 259.256 94.1862 259.365 94.3704C259.476 94.5545 259.607 94.6466 259.758 94.6466C259.901 94.6466 260.049 94.5753 260.202 94.4327C260.356 94.2915 260.506 94.1108 260.651 93.8906C260.796 93.6719 260.928 93.4407 261.046 93.197C261.165 92.9533 261.259 92.7255 261.328 92.5137C261.397 92.3033 261.432 92.1406 261.432 92.0257ZM264.454 87.6145H265.974V93.3174C265.974 93.5348 265.978 93.7972 265.986 94.1046C265.995 94.4119 266.006 94.7124 266.022 95.0059C266.037 95.3008 266.055 95.541 266.076 95.7265H264.555V89.9966C264.555 89.0067 264.521 88.2126 264.454 87.6145ZM276.468 95.7265H274.948V92.5075H271.957V95.7265H270.435C270.472 95.5244 270.494 95.2357 270.501 94.8605C270.508 94.4853 270.512 94.0471 270.512 93.5459V90.5034C270.512 90.0035 270.508 89.566 270.501 89.1908C270.494 88.8156 270.472 88.5269 270.435 88.3248H271.957V91.3652H274.948V88.3248H276.468C276.432 88.5269 276.411 88.8156 276.404 89.1908C276.397 89.566 276.393 90.0035 276.393 90.5034V93.5459C276.393 94.0471 276.397 94.4853 276.404 94.8605C276.411 95.2357 276.432 95.5244 276.468 95.7265ZM282.476 93.4441H278.582V92.5324H281.184C281.184 92.178 281.108 91.9204 280.954 91.7598C280.8 91.5992 280.572 91.5189 280.271 91.5189C279.907 91.5189 279.635 91.6449 279.457 91.8969C279.279 92.1475 279.191 92.5705 279.191 93.1658C279.191 93.703 279.299 94.0949 279.517 94.3413C279.733 94.5891 280.051 94.7131 280.47 94.7131C280.801 94.7131 281.126 94.6743 281.444 94.5968C281.764 94.5178 282.081 94.3856 282.395 94.2001L282.503 95.3465C282.138 95.532 281.785 95.6629 281.444 95.739C281.105 95.8152 280.737 95.8532 280.341 95.8532C279.895 95.8532 279.48 95.7535 279.095 95.5542C278.71 95.3548 278.4 95.0592 278.165 94.6674C277.929 94.2755 277.812 93.7923 277.812 93.2178C277.812 92.6556 277.914 92.1683 278.119 91.7557C278.324 91.3445 278.615 91.0246 278.993 90.7962C279.371 90.5677 279.821 90.4535 280.341 90.4535C280.768 90.4535 281.119 90.5269 281.394 90.6737C281.67 90.8204 281.886 91.0177 282.044 91.2655C282.201 91.512 282.311 91.7882 282.374 92.0942C282.44 92.4002 282.472 92.7117 282.472 93.0288C282.472 93.0758 282.473 93.1451 282.474 93.2364C282.476 93.3278 282.476 93.3971 282.476 93.4441ZM288.921 95.7265H287.573C287.524 95.6449 287.479 95.5106 287.436 95.3236C287.391 95.1353 287.357 94.9394 287.332 94.7359C287.306 94.531 287.292 94.3662 287.292 94.2416V93.9529C287.168 94.2423 286.994 94.5338 286.771 94.8273C286.548 95.1194 286.288 95.3631 285.99 95.5583C285.693 95.7549 285.366 95.8532 285.012 95.8532C284.586 95.8532 284.226 95.6649 283.932 95.2883C283.637 94.9117 283.49 94.3648 283.49 93.6477C283.49 93.2448 283.549 92.8536 283.668 92.4743C283.786 92.0935 283.968 91.7508 284.215 91.4462C284.462 91.143 284.777 90.9014 285.159 90.7214C285.54 90.5428 285.993 90.4535 286.518 90.4535C286.886 90.4535 287.252 90.4743 287.614 90.5158C287.978 90.5587 288.304 90.6141 288.59 90.682V93.0391C288.59 93.6774 288.621 94.2139 288.682 94.6487C288.743 95.0834 288.822 95.4427 288.921 95.7265ZM287.141 92.0257V91.6913C287.07 91.6733 286.967 91.6518 286.831 91.6269C286.697 91.602 286.521 91.5895 286.304 91.5895C285.949 91.5895 285.67 91.6871 285.467 91.8824C285.265 92.079 285.121 92.3344 285.037 92.6487C284.952 92.963 284.91 93.296 284.91 93.6477C284.91 93.9453 284.965 94.1862 285.074 94.3704C285.185 94.5545 285.316 94.6466 285.467 94.6466C285.609 94.6466 285.758 94.5753 285.911 94.4327C286.065 94.2915 286.215 94.1108 286.36 93.8906C286.505 93.6719 286.637 93.4407 286.757 93.197C286.874 92.9533 286.968 92.7255 287.037 92.5137C287.106 92.3033 287.141 92.1406 287.141 92.0257ZM290.163 87.6145H291.683V93.3174C291.683 93.5348 291.688 93.7972 291.697 94.1046C291.706 94.4119 291.717 94.7124 291.733 95.0059C291.748 95.3008 291.765 95.541 291.785 95.7265H290.264V89.9966C290.264 89.0067 290.23 88.2126 290.163 87.6145ZM296.754 94.3019V95.4379C296.513 95.5902 296.282 95.6975 296.059 95.7598C295.836 95.8221 295.633 95.8532 295.45 95.8532C295.133 95.8532 294.842 95.8103 294.578 95.7245C294.315 95.6386 294.104 95.4863 293.946 95.2676C293.79 95.0502 293.712 94.747 293.712 94.3579C293.712 93.469 293.712 92.5809 293.712 91.6934C293.712 90.8059 293.712 89.9191 293.712 89.033H295.13C295.13 89.7571 295.13 90.4812 295.13 91.2053C295.13 91.9308 295.13 92.657 295.13 93.3839C295.13 93.766 295.152 94.0499 295.197 94.2354C295.241 94.4223 295.31 94.5435 295.404 94.5988C295.499 94.6542 295.622 94.6819 295.774 94.6819C296.018 94.6819 296.345 94.5552 296.754 94.3019ZM296.678 90.63V91.6456H292.748V90.63H296.678ZM299.186 92.7858V95.7265H297.768C297.768 95.3181 297.768 94.8827 297.768 94.4202C297.768 93.9592 297.768 93.4988 297.768 93.0391C297.768 92.5795 297.768 92.1454 297.768 91.737C297.768 91.3272 297.768 90.9713 297.768 90.6695C297.768 90.3663 297.768 90.142 297.768 89.9966C297.768 89.4525 297.764 88.9734 297.757 88.5595C297.751 88.1455 297.728 87.8305 297.691 87.6145H299.186C299.186 87.9994 299.186 88.4037 299.186 88.8274C299.186 89.2524 299.186 89.6539 299.186 90.0319C299.186 90.4113 299.186 90.727 299.186 90.9789C299.186 91.2309 299.186 91.377 299.186 91.4172C299.437 91.0959 299.739 90.855 300.092 90.6944C300.445 90.5338 300.802 90.4535 301.163 90.4535C302.195 90.4535 302.711 91.1548 302.711 92.5573C302.711 92.7096 302.711 92.9125 302.711 93.1658C302.711 93.4192 302.711 93.6961 302.711 93.9966C302.711 94.2984 302.711 94.5995 302.711 94.9C302.711 95.2004 302.711 95.4759 302.711 95.7265H301.29C301.29 95.4995 301.29 95.2517 301.29 94.983C301.29 94.7144 301.29 94.4479 301.29 94.1835C301.29 93.9176 301.29 93.6747 301.29 93.4545C301.29 93.2358 301.29 93.0634 301.29 92.9374C301.29 92.4445 301.227 92.1143 301.101 91.9467C300.974 91.7792 300.775 91.6954 300.505 91.6954C300.313 91.6954 300.126 91.7501 299.946 91.8595C299.768 91.9703 299.612 92.108 299.479 92.2728C299.345 92.4389 299.247 92.6099 299.186 92.7858ZM308.019 90.8128L307.795 92.0402C307.619 91.881 307.426 91.7626 307.217 91.6851C307.008 91.6075 306.76 91.5688 306.472 91.5688C306.094 91.5688 305.791 91.7155 305.562 92.009C305.334 92.304 305.219 92.6979 305.219 93.1908C305.219 93.638 305.327 94.0035 305.541 94.2873C305.756 94.5711 306.066 94.7131 306.472 94.7131C306.776 94.7131 307.039 94.6639 307.259 94.5656C307.478 94.4673 307.697 94.3302 307.917 94.1544L308.069 95.3714C307.839 95.5265 307.577 95.6456 307.284 95.7286C306.989 95.8117 306.652 95.8532 306.274 95.8532C305.822 95.8532 305.408 95.7522 305.033 95.55C304.657 95.3465 304.358 95.0495 304.135 94.6591C303.912 94.2686 303.801 93.7965 303.801 93.2427C303.801 92.7152 303.91 92.241 304.127 91.8201C304.346 91.3992 304.653 91.0662 305.049 90.8211C305.447 90.576 305.912 90.4535 306.447 90.4535C306.782 90.4535 307.081 90.4888 307.344 90.5594C307.608 90.63 307.833 90.7145 308.019 90.8128ZM314.463 95.7265H313.113C313.066 95.6449 313.021 95.5106 312.976 95.3236C312.933 95.1353 312.899 94.9394 312.873 94.7359C312.848 94.531 312.835 94.3662 312.835 94.2416V93.9529C312.711 94.2423 312.536 94.5338 312.312 94.8273C312.089 95.1194 311.829 95.3631 311.533 95.5583C311.235 95.7549 310.909 95.8532 310.553 95.8532C310.128 95.8532 309.768 95.6649 309.473 95.2883C309.179 94.9117 309.032 94.3648 309.032 93.6477C309.032 93.2448 309.091 92.8536 309.209 92.4743C309.328 92.0935 309.511 91.7508 309.757 91.4462C310.004 91.143 310.318 90.9014 310.7 90.7214C311.082 90.5428 311.535 90.4535 312.058 90.4535C312.428 90.4535 312.794 90.4743 313.157 90.5158C313.52 90.5587 313.845 90.6141 314.133 90.682V93.0391C314.133 93.6774 314.164 94.2139 314.225 94.6487C314.285 95.0834 314.365 95.4427 314.463 95.7265ZM312.684 92.0257V91.6913C312.612 91.6733 312.508 91.6518 312.374 91.6269C312.238 91.602 312.063 91.5895 311.847 91.5895C311.492 91.5895 311.213 91.6871 311.01 91.8824C310.807 92.079 310.664 92.3344 310.58 92.6487C310.494 92.963 310.451 93.296 310.451 93.6477C310.451 93.9453 310.506 94.1862 310.617 94.3704C310.726 94.5545 310.857 94.6466 311.01 94.6466C311.152 94.6466 311.3 94.5753 311.454 94.4327C311.608 94.2915 311.757 94.1108 311.903 93.8906C312.048 93.6719 312.18 93.4407 312.297 93.197C312.416 92.9533 312.51 92.7255 312.58 92.5137C312.649 92.3033 312.684 92.1406 312.684 92.0257ZM317.049 93.0391V95.7265H315.628V92.6092C315.628 92.1122 315.601 91.6892 315.545 91.3403C315.489 90.9928 315.432 90.7311 315.375 90.5553H316.769C316.796 90.6259 316.823 90.7235 316.848 90.8481C316.872 90.9741 316.897 91.1008 316.92 91.2282C316.945 91.3569 316.962 91.4622 316.972 91.5438C317.219 91.1922 317.489 90.9222 317.784 90.7339C318.078 90.547 318.339 90.4535 318.569 90.4535C318.886 90.4535 319.142 90.5407 319.336 90.7152C319.528 90.8883 319.668 91.1188 319.755 91.4068C319.844 91.6934 319.888 92.009 319.888 92.3538L318.756 92.5324C318.74 92.3026 318.684 92.1177 318.59 91.9779C318.494 91.8367 318.339 91.7661 318.123 91.7661C318.012 91.7661 317.884 91.8291 317.738 91.955C317.593 92.0797 317.457 92.2389 317.329 92.4327C317.202 92.6279 317.109 92.8301 317.049 93.0391ZM325.059 93.4441H321.165V92.5324H323.765C323.765 92.178 323.689 91.9204 323.535 91.7598C323.381 91.5992 323.154 91.5189 322.854 91.5189C322.488 91.5189 322.217 91.6449 322.04 91.8969C321.862 92.1475 321.774 92.5705 321.774 93.1658C321.774 93.703 321.882 94.0949 322.098 94.3413C322.314 94.5891 322.631 94.7131 323.051 94.7131C323.382 94.7131 323.707 94.6743 324.027 94.5968C324.347 94.5178 324.664 94.3856 324.978 94.2001L325.084 95.3465C324.719 95.532 324.366 95.6629 324.027 95.739C323.687 95.8152 323.319 95.8532 322.924 95.8532C322.479 95.8532 322.062 95.7535 321.676 95.5542C321.291 95.3548 320.981 95.0592 320.746 94.6674C320.512 94.2755 320.395 93.7923 320.395 93.2178C320.395 92.6556 320.497 92.1683 320.7 91.7557C320.905 91.3445 321.196 91.0246 321.574 90.7962C321.954 90.5677 322.404 90.4535 322.924 90.4535C323.349 90.4535 323.7 90.5269 323.975 90.6737C324.251 90.8204 324.467 91.0177 324.625 91.2655C324.782 91.512 324.892 91.7882 324.958 92.0942C325.021 92.4002 325.053 92.7117 325.053 93.0288C325.053 93.0758 325.054 93.1451 325.055 93.2364C325.058 93.3278 325.059 93.3971 325.059 93.4441ZM334.513 93.6726L334.766 95.0163C334.561 95.1824 334.312 95.3278 334.017 95.4524C333.723 95.577 333.416 95.6753 333.097 95.7473C332.777 95.8179 332.471 95.8532 332.181 95.8532C331.481 95.8532 330.88 95.7009 330.376 95.3963C329.872 95.0931 329.485 94.6625 329.215 94.1046C328.945 93.5466 328.81 92.8875 328.81 92.1274C328.81 91.4739 328.903 90.9014 329.09 90.4099C329.279 89.9184 329.537 89.5086 329.865 89.1804C330.192 88.8523 330.568 88.6065 330.993 88.4432C331.416 88.2798 331.864 88.1981 332.334 88.1981C332.801 88.1981 333.219 88.25 333.589 88.3538C333.958 88.4591 334.326 88.6432 334.692 88.9063L334.336 90.1233C334.015 89.8699 333.697 89.6885 333.381 89.5792C333.064 89.4684 332.74 89.413 332.409 89.413C332.001 89.413 331.633 89.5099 331.306 89.7038C330.981 89.8962 330.724 90.1835 330.536 90.5657C330.349 90.9478 330.255 91.4262 330.255 92.0007C330.255 92.8149 330.442 93.4531 330.814 93.9156C331.188 94.3794 331.703 94.6113 332.359 94.6113C332.741 94.6113 333.126 94.5261 333.514 94.3559C333.903 94.1842 334.236 93.9564 334.513 93.6726ZM335.832 93.1554C335.832 92.5739 335.947 92.0824 336.179 91.6809C336.41 91.278 336.719 90.9727 337.105 90.765C337.49 90.5574 337.911 90.4535 338.368 90.4535C338.847 90.4535 339.269 90.5574 339.634 90.765C340 90.9727 340.286 91.278 340.492 91.6809C340.697 92.0824 340.799 92.5739 340.799 93.1554C340.799 93.737 340.684 94.2278 340.453 94.6279C340.221 95.0294 339.913 95.334 339.528 95.5417C339.142 95.7494 338.721 95.8532 338.266 95.8532C337.789 95.8532 337.369 95.7494 337.003 95.5417C336.638 95.334 336.351 95.0294 336.143 94.6279C335.936 94.2278 335.832 93.737 335.832 93.1554ZM337.252 93.1554C337.252 93.6387 337.342 94.0194 337.522 94.2977C337.704 94.5746 337.968 94.7131 338.316 94.7131C338.644 94.7131 338.903 94.5746 339.094 94.2977C339.285 94.0194 339.381 93.6387 339.381 93.1554C339.381 92.6695 339.29 92.2873 339.109 92.009C338.929 91.7321 338.665 91.5937 338.316 91.5937C337.987 91.5937 337.728 91.7321 337.537 92.009C337.347 92.2873 337.252 92.6695 337.252 93.1554ZM346.48 92.3808V95.7265H345.059V92.8356C345.059 92.5144 345.041 92.2728 345.005 92.1108C344.97 91.9488 344.911 91.8394 344.826 91.7827C344.742 91.7245 344.625 91.6954 344.475 91.6954C344.287 91.6954 344.104 91.7688 343.925 91.9156C343.748 92.0624 343.61 92.2506 343.512 92.4805V95.7265H342.093V92.6092C342.093 92.1122 342.064 91.6892 342.006 91.3403C341.949 90.9928 341.894 90.7311 341.84 90.5553H343.157C343.215 90.6536 343.263 90.772 343.302 90.9104C343.341 91.0489 343.372 91.1756 343.396 91.2905C343.707 90.9526 343.997 90.7283 344.266 90.6176C344.534 90.5082 344.815 90.4535 345.109 90.4535C345.441 90.4535 345.711 90.5394 345.919 90.711C346.127 90.8841 346.273 91.0821 346.357 91.305C346.675 90.9644 346.975 90.7373 347.254 90.6238C347.535 90.5103 347.809 90.4535 348.077 90.4535C348.59 90.4535 348.947 90.6183 349.146 90.9478C349.346 91.2773 349.445 91.755 349.445 92.3808V95.7265H348.025V92.9374C348.025 92.5968 348.008 92.3372 347.975 92.1586C347.94 91.9814 347.881 91.8602 347.796 91.7951C347.712 91.7287 347.593 91.6954 347.441 91.6954C347.256 91.6954 347.076 91.7571 346.901 91.8803C346.728 92.0035 346.588 92.1703 346.48 92.3808ZM350.662 90.5553H352.056C352.093 90.6287 352.131 90.738 352.168 90.8834C352.204 91.0288 352.234 91.2067 352.259 91.4172C352.492 91.1333 352.765 90.9014 353.078 90.7214C353.391 90.5428 353.731 90.4535 354.099 90.4535C354.477 90.4535 354.808 90.5636 355.09 90.7837C355.373 91.0025 355.592 91.305 355.748 91.6913C355.906 92.0762 355.985 92.5172 355.985 93.0142C355.985 93.5916 355.884 94.0928 355.682 94.5178C355.478 94.9415 355.205 95.2703 354.862 95.5043C354.518 95.7369 354.139 95.8532 353.724 95.8532C353.456 95.8532 353.217 95.8117 353.007 95.7286C352.795 95.6456 352.571 95.5348 352.334 95.3963V96.4867C352.334 96.8923 352.345 97.2274 352.365 97.4918C352.385 97.7549 352.417 97.9944 352.461 98.2104H350.916C350.916 97.3866 350.916 96.5628 350.916 95.739C350.916 94.9166 350.916 94.0928 350.916 93.2676C350.916 92.6349 350.902 92.0963 350.874 91.6518C350.848 91.2074 350.777 90.8419 350.662 90.5553ZM352.334 92.7609V94.2063C352.594 94.3946 352.792 94.5213 352.926 94.5864C353.059 94.6501 353.213 94.6819 353.389 94.6819C353.701 94.6819 353.975 94.5469 354.212 94.2769C354.447 94.0056 354.565 93.6352 354.565 93.1658C354.565 92.7062 354.479 92.3406 354.307 92.0693C354.134 91.7965 353.894 91.6601 353.586 91.6601C353.361 91.6601 353.132 91.7536 352.899 91.9405C352.668 92.1288 352.479 92.4023 352.334 92.7609ZM362.378 95.7265H361.03C360.983 95.6449 360.937 95.5106 360.893 95.3236C360.848 95.1353 360.814 94.9394 360.789 94.7359C360.764 94.531 360.751 94.3662 360.751 94.2416V93.9529C360.625 94.2423 360.451 94.5338 360.228 94.8273C360.005 95.1194 359.745 95.3631 359.447 95.5583C359.15 95.7549 358.823 95.8532 358.469 95.8532C358.043 95.8532 357.683 95.6649 357.389 95.2883C357.096 94.9117 356.949 94.3648 356.949 93.6477C356.949 93.2448 357.008 92.8536 357.125 92.4743C357.244 92.0935 357.427 91.7508 357.674 91.4462C357.92 91.143 358.234 90.9014 358.616 90.7214C358.999 90.5428 359.451 90.4535 359.975 90.4535C360.343 90.4535 360.709 90.4743 361.073 90.5158C361.436 90.5587 361.761 90.6141 362.049 90.682V93.0391C362.049 93.6774 362.08 94.2139 362.141 94.6487C362.202 95.0834 362.281 95.4427 362.378 95.7265ZM360.598 92.0257V91.6913C360.527 91.6733 360.425 91.6518 360.29 91.6269C360.155 91.602 359.979 91.5895 359.763 91.5895C359.407 91.5895 359.128 91.6871 358.926 91.8824C358.722 92.079 358.578 92.3344 358.494 92.6487C358.41 92.963 358.367 93.296 358.367 93.6477C358.367 93.9453 358.423 94.1862 358.533 94.3704C358.643 94.5545 358.774 94.6466 358.926 94.6466C359.067 94.6466 359.215 94.5753 359.368 94.4327C359.522 94.2915 359.672 94.1108 359.817 93.8906C359.962 93.6719 360.094 93.4407 360.214 93.197C360.331 92.9533 360.425 92.7255 360.494 92.5137C360.563 92.3033 360.598 92.1406 360.598 92.0257ZM368.488 95.7265H367.067C367.067 95.7265 367.067 95.6539 367.067 95.5085C367.067 95.3631 367.067 95.1755 367.067 94.9457C367.067 94.7158 367.067 94.4722 367.067 94.2146C367.067 93.9585 367.067 93.7162 367.067 93.4877C367.067 93.2593 367.067 93.0758 367.067 92.9374C367.067 92.4708 367.004 92.1475 366.878 91.9675C366.751 91.7861 366.552 91.6954 366.282 91.6954C366.09 91.6954 365.903 91.7501 365.723 91.8595C365.545 91.9703 365.389 92.108 365.256 92.2728C365.122 92.4389 365.024 92.6099 364.963 92.7858V95.7265H363.545C363.545 95.7265 363.545 95.6511 363.545 95.5002C363.545 95.3506 363.545 95.1554 363.545 94.9145C363.545 94.675 363.545 94.414 363.545 94.1316C363.545 93.8491 363.545 93.5736 363.545 93.305C363.545 93.0364 363.545 92.8045 363.545 92.6092C363.545 92.1122 363.516 91.6892 363.46 91.3403C363.404 90.9928 363.348 90.7311 363.291 90.5553H364.685C364.711 90.6231 364.738 90.7159 364.764 90.8336C364.789 90.9513 364.813 91.071 364.837 91.1929C364.86 91.3147 364.877 91.4144 364.888 91.4919C365.21 91.1236 365.525 90.8585 365.836 90.6965C366.147 90.5345 366.482 90.4535 366.841 90.4535C367.354 90.4535 367.757 90.63 368.049 90.9831C368.342 91.3362 368.488 91.8609 368.488 92.5573C368.488 92.7262 368.488 92.9415 368.488 93.2032C368.488 93.4663 368.488 93.7432 368.488 94.0339C368.488 94.3247 368.488 94.5981 368.488 94.8543C368.488 95.1118 368.488 95.3216 368.488 95.4836C368.488 95.6456 368.488 95.7265 368.488 95.7265ZM369.958 90.5553H371.453C371.453 90.8086 371.453 91.0786 371.453 91.3652C371.453 91.6532 371.453 91.9315 371.453 92.2001C371.453 92.4687 371.453 92.7027 371.453 92.9021C371.453 93.1015 371.453 93.2399 371.453 93.3174C371.453 93.5348 371.457 93.7979 371.466 94.1066C371.474 94.4154 371.486 94.7172 371.501 95.0121C371.516 95.3056 371.534 95.5438 371.555 95.7265H370.033C370.033 95.4829 370.033 95.197 370.033 94.8688C370.033 94.5421 370.033 94.2153 370.033 93.8886C370.033 93.5618 370.033 93.2787 370.033 93.0391C370.033 92.5463 370.029 92.0755 370.02 91.6269C370.012 91.1797 369.991 90.8225 369.958 90.5553ZM369.856 88.7048C369.856 88.4445 369.94 88.2313 370.108 88.0652C370.275 87.899 370.487 87.816 370.743 87.816C371.003 87.816 371.217 87.899 371.383 88.0652C371.547 88.2313 371.63 88.4445 371.63 88.7048C371.63 88.9679 371.547 89.1811 371.383 89.3445C371.217 89.5093 371.003 89.5916 370.743 89.5916C370.487 89.5916 370.275 89.5093 370.108 89.3445C369.94 89.1811 369.856 88.9679 369.856 88.7048ZM372.822 93.1554C372.822 92.5739 372.938 92.0824 373.169 91.6809C373.4 91.278 373.709 90.9727 374.095 90.765C374.48 90.5574 374.901 90.4535 375.358 90.4535C375.837 90.4535 376.259 90.5574 376.625 90.765C376.99 90.9727 377.276 91.278 377.482 91.6809C377.687 92.0824 377.79 92.5739 377.79 93.1554C377.79 93.737 377.674 94.2278 377.443 94.6279C377.212 95.0294 376.904 95.334 376.519 95.5417C376.132 95.7494 375.711 95.8532 375.256 95.8532C374.78 95.8532 374.359 95.7494 373.993 95.5417C373.628 95.334 373.341 95.0294 373.133 94.6279C372.926 94.2278 372.822 93.737 372.822 93.1554ZM374.242 93.1554C374.242 93.6387 374.332 94.0194 374.512 94.2977C374.694 94.5746 374.958 94.7131 375.306 94.7131C375.634 94.7131 375.894 94.5746 376.085 94.2977C376.276 94.0194 376.371 93.6387 376.371 93.1554C376.371 92.6695 376.281 92.2873 376.099 92.009C375.919 91.7321 375.655 91.5937 375.306 91.5937C374.978 91.5937 374.718 91.7321 374.527 92.009C374.337 92.2873 374.242 92.6695 374.242 93.1554ZM383.925 95.7265H382.506C382.506 95.7265 382.506 95.6539 382.506 95.5085C382.506 95.3631 382.506 95.1755 382.506 94.9457C382.506 94.7158 382.506 94.4722 382.506 94.2146C382.506 93.9585 382.506 93.7162 382.506 93.4877C382.506 93.2593 382.506 93.0758 382.506 92.9374C382.506 92.4708 382.442 92.1475 382.315 91.9675C382.189 91.7861 381.99 91.6954 381.719 91.6954C381.527 91.6954 381.341 91.7501 381.162 91.8595C380.982 91.9703 380.826 92.108 380.693 92.2728C380.56 92.4389 380.463 92.6099 380.402 92.7858V95.7265H378.982C378.982 95.7265 378.982 95.6511 378.982 95.5002C378.982 95.3506 378.982 95.1554 378.982 94.9145C378.982 94.675 378.982 94.414 378.982 94.1316C378.982 93.8491 378.982 93.5736 378.982 93.305C378.982 93.0364 378.982 92.8045 378.982 92.6092C378.982 92.1122 378.954 91.6892 378.899 91.3403C378.842 90.9928 378.785 90.7311 378.728 90.5553H380.122C380.15 90.6231 380.176 90.7159 380.201 90.8336C380.226 90.9513 380.251 91.071 380.276 91.1929C380.299 91.3147 380.316 91.4144 380.325 91.4919C380.647 91.1236 380.962 90.8585 381.272 90.6965C381.584 90.5345 381.919 90.4535 382.278 90.4535C382.791 90.4535 383.194 90.63 383.486 90.9831C383.779 91.3362 383.925 91.8609 383.925 92.5573C383.925 92.7262 383.925 92.9415 383.925 93.2032C383.925 93.4663 383.925 93.7432 383.925 94.0339C383.925 94.3247 383.925 94.5981 383.925 94.8543C383.925 95.1118 383.925 95.3216 383.925 95.4836C383.925 95.6456 383.925 95.7265 383.925 95.7265Z" fill="currentColor"/>
</g>
</g>
</g>
</g>
<g clip-path="url(#clip7_271_1000)">
<g clip-path="url(#clip8_271_1000)">
<g clip-path="url(#clip9_271_1000)">
<g clip-path="url(#clip10_271_1000)">
<path d="M112.74 58.0103C111.189 61.3182 101.899 69.2763 102.069 75.3652C102.092 76.1799 99.2913 76.6933 99.2663 76.1157C98.9971 69.8762 107.766 63.8791 110.309 57.6555C113.194 50.5959 107.068 47.412 103.955 47.9664C102.912 48.1527 99.384 49.6288 97.7243 54.4056C97.5335 54.9538 94.9432 55.6509 94.9379 55.018C94.9138 52.294 94.305 48.9273 91.6897 47.7257C89.5174 46.7265 80.2321 47.7587 84.3172 58.6556C86.3121 63.9789 96.7411 70.5224 97.7421 75.3572C98.2555 77.8459 77.4608 78.5171 74.0531 75.5123C69.9635 71.9058 69.082 61.4037 68.6622 56.1571C68.6327 56.7294 67.014 78.9681 65.8062 104.72C65.7786 105.311 63.1892 106.013 63.0198 105.332C59.744 92.1773 57.742 78.7346 54.5215 65.5709C54.0865 68.3617 50.6325 83.8635 48.4941 88.4897C48.2588 88.9978 45.6854 89.7358 45.7077 89.102C45.853 84.9296 45.6266 79.3835 41.3961 77.1773C39.7302 76.3083 35.7868 76.1986 28.8956 75.8011C28.3332 75.769 28.2904 75.4151 28.7165 75.1334C29.2914 74.7484 30.0179 74.6013 30.698 74.6013C33.2375 74.6004 39.6731 74.1984 44.031 76.2004C46.5794 77.3726 47.6535 79.9067 48.167 82.497C49.0218 79.724 52.1451 63.8291 52.7566 58.6655C52.8288 58.0647 55.3576 57.4015 55.543 58.054C59.2582 71.1134 61.3244 84.5507 64.2383 97.7964C63.9834 80.9674 67.1424 53.6907 66.2662 41.4915C66.2136 40.7695 68.8279 40.0466 69.0677 40.7401C70.7578 45.6167 71.4896 50.8116 71.5564 55.9334C71.7222 68.5855 75.4392 73.7295 76.8003 74.6156C77.8691 75.3108 89.825 75.1227 94.5225 75.137C93.1952 68.0703 81.652 65.685 80.75 56.1652C80.4344 52.8359 81.8579 49.1448 84.7513 47.2756C92.2914 42.406 96.6618 48.995 97.259 50.9854C102.35 42.923 109.161 46.4225 111.262 48.9932C113.301 51.4891 114.136 55.0358 112.74 58.0103Z" fill="currentColor"/>
</g>
</g>
<path d="M15.8589 54.1102L15.1471 55.936L0.862305 49.7285L1.9992 46.8133L13.8249 47.46L13.8877 47.2993L4.74324 39.7761L5.88483 36.8491L20.6024 41.9449L19.8905 43.7702L13.6924 41.589L7.19352 39.2783L7.11378 39.4829L16.5871 47.3069L15.8214 49.2706L3.5524 48.6168L3.47266 48.8214L9.82674 51.535L15.8589 54.1102Z" fill="currentColor"/>
<path d="M29.3157 31.4743C28.1055 32.8246 26.8666 33.5452 25.5989 33.6373C24.3254 33.7294 23.0759 33.2257 21.8493 32.1263L20.2709 30.7109C19.0238 29.5934 18.3472 28.4148 18.2404 27.1765C18.139 25.9376 18.6356 24.7075 19.7291 23.4867C20.4662 22.6641 21.2325 22.1153 22.0276 21.8391C22.8285 21.563 23.6341 21.5383 24.4456 21.7658C25.2565 21.988 26.0527 22.4489 26.8343 23.1496L27.1615 23.4427C27.3532 23.6145 27.5397 23.7951 27.7208 23.9839C27.902 24.1733 28.0738 24.3639 28.2356 24.5574L27.0266 25.9059C26.7481 25.635 26.4808 25.3823 26.2239 25.1466C25.9642 24.9086 25.7267 24.6928 25.5121 24.4999C24.9727 24.0162 24.4391 23.6949 23.912 23.536C23.3873 23.3741 22.8731 23.3753 22.3688 23.5407C21.8646 23.7054 21.3832 24.0443 20.9229 24.5574C20.2387 25.3208 19.9473 26.0906 20.0481 26.8675C20.1495 27.6444 20.611 28.4008 21.4336 29.1378L22.2785 29.8953L22.4673 30.0489L23.3075 30.8018C23.6787 31.1348 24.061 31.3787 24.4538 31.5341C24.8496 31.6918 25.2577 31.7493 25.6781 31.7071C26.102 31.6672 26.5312 31.5177 26.9657 31.258C27.4001 30.9988 27.8393 30.6218 28.2831 30.1263C28.7985 29.5517 29.2031 28.949 29.4963 28.3193C29.79 27.6895 30.0011 27.0387 30.1301 26.3674L31.2805 27.6456C31.1767 28.2595 30.9656 28.8921 30.6484 29.5429C30.3283 30.1967 29.8838 30.8405 29.3157 31.4743ZM27.9624 24.8622L22.3178 31.1589L21.2126 30.168L26.8566 23.8713L27.9624 24.8622Z" fill="currentColor"/>
<path d="M43.338 20.5961C41.7778 21.5202 40.3799 21.8356 39.1428 21.5419C37.9009 21.2469 36.8602 20.3909 36.0206 18.9737L34.9405 17.1502C34.0874 15.7096 33.7954 14.3822 34.0657 13.1684C34.3413 11.9559 35.1845 10.9322 36.5946 10.0966C37.545 9.53377 38.4409 9.24002 39.2817 9.21598C40.1284 9.19311 40.9047 9.41181 41.6101 9.87267C42.3172 10.3283 42.9375 11.0072 43.4728 11.9096L43.6962 12.2878C43.8276 12.5094 43.9513 12.7375 44.0674 12.972C44.1835 13.2071 44.2896 13.4405 44.3864 13.6739L42.8279 14.5967C42.6438 14.2549 42.4649 13.933 42.2908 13.6311C42.1149 13.3262 41.9531 13.0488 41.8053 12.8008C41.4359 12.1775 41.0237 11.7108 40.5687 11.4007C40.1173 11.0887 39.6259 10.9351 39.0959 10.941C38.5658 10.9468 38.0041 11.1251 37.4113 11.4763C36.5289 11.9987 36.02 12.6454 35.8834 13.417C35.7467 14.1881 35.9596 15.0488 36.5225 15.9993L37.1006 16.9749L37.2349 17.1784L37.8095 18.1488C38.0639 18.5779 38.3548 18.9256 38.6825 19.1918C39.012 19.461 39.3843 19.6386 39.7989 19.7242C40.2152 19.8133 40.6696 19.7999 41.1615 19.6832C41.6535 19.5665 42.1858 19.3384 42.7581 19.0001C43.4224 18.6067 43.9888 18.1534 44.4585 17.641C44.9275 17.1285 45.3245 16.5709 45.6493 15.9694L46.3623 17.5343C46.0785 18.0889 45.6874 18.6284 45.189 19.1543C44.6871 19.6814 44.0697 20.1622 43.338 20.5961ZM44.034 13.8826L36.7588 18.1921L36.0018 16.9145L43.277 12.6056L44.034 13.8826Z" fill="currentColor"/>
<path d="M59.3626 14.4947C58.4702 14.7117 57.7203 14.7515 57.1117 14.6143C56.5007 14.4818 56.0059 14.1722 55.6271 13.6856C55.2518 13.1983 54.9657 12.5487 54.7687 11.7372L52.9968 4.44968L54.8895 3.9894L56.6063 11.0518C56.7904 11.8093 57.0994 12.3253 57.5327 12.5991C57.9707 12.8759 58.5992 12.914 59.4183 12.7152C59.8839 12.602 60.3195 12.4414 60.7252 12.2321C61.131 12.0233 61.4992 11.7788 61.8299 11.4991L62.0509 13.1872C61.7285 13.4692 61.3321 13.7243 60.8624 13.9529C60.3893 14.1863 59.8897 14.3669 59.3626 14.4947ZM59.6335 3.74666L51.3134 5.76951L50.9399 4.23508L59.4336 2.17002L59.6335 3.74666ZM54.7253 3.51623L52.8907 3.96243L52.0903 0.722361L53.956 0L54.7253 3.51623Z" fill="currentColor"/>
<path d="M75.1435 13.4001C73.4384 13.3332 72.1631 12.8219 71.3171 11.8656C70.4751 10.9134 70.0875 9.57308 70.155 7.84457L70.2265 6.02929C70.2939 4.3084 70.7864 3.0085 71.704 2.12901C72.6258 1.24599 73.9356 0.837902 75.6325 0.904157C77.3334 0.970999 78.6069 1.47994 79.453 2.43273C80.2956 3.38083 80.6831 4.71532 80.6157 6.43562L80.5448 8.25149C80.4773 9.97999 79.986 11.2863 79.0719 12.1694C78.1537 13.0565 76.8444 13.4669 75.1435 13.4001ZM75.2062 11.7982C76.2587 11.8393 77.0719 11.5584 77.6459 10.9545C78.2164 10.3506 78.5243 9.45992 78.5706 8.28139L78.6503 6.25209C78.6961 5.08119 78.458 4.17472 77.9362 3.5321C77.4108 2.88948 76.6216 2.54765 75.5697 2.5066C74.5214 2.46556 73.7105 2.74465 73.1365 3.34389C72.5583 3.94312 72.2464 4.82848 72.2007 5.99938L72.1209 8.02868C72.0746 9.20721 72.3162 10.1201 72.8456 10.7669C73.371 11.4136 74.1578 11.7572 75.2062 11.7982Z" fill="currentColor"/>
<path d="M92.8779 17.1444C91.2684 16.578 90.2247 15.7214 89.7469 14.5751C89.2678 13.4329 89.3089 12.0644 89.8706 10.4702L90.4857 8.72233C91.0497 7.12047 91.877 6.02872 92.967 5.44766C94.0588 4.8625 95.4056 4.85195 97.0074 5.416C97.4818 5.58311 97.8998 5.77835 98.2616 6.00233C98.6181 6.22866 98.9265 6.46729 99.1862 6.71824C99.4501 6.97037 99.6612 7.21076 99.8207 7.43885L99.4131 9.11458C99.1481 8.7106 98.8028 8.32655 98.3771 7.96303C97.9514 7.59892 97.4044 7.2993 96.7354 7.06418C95.6636 6.68658 94.7618 6.703 94.03 7.11226C93.2948 7.52035 92.7278 8.2902 92.3297 9.42182L91.7457 11.08C91.3552 12.1887 91.3182 13.1351 91.6343 13.9178C91.9468 14.6994 92.6387 15.2787 93.7105 15.6557C94.4012 15.899 95.0303 16.0134 95.5973 15.9993C96.1684 15.9864 96.6967 15.9102 97.1827 15.7706L96.4311 17.3502C96.0136 17.4634 95.4982 17.5208 94.8843 17.5238C94.2745 17.5273 93.6055 17.4006 92.8779 17.1444Z" fill="currentColor"/>
<path d="M110.375 12.5322L111.959 13.6844L107.614 19.6644C107.246 20.1704 106.995 20.6635 106.861 21.1437C106.731 21.6262 106.75 22.0883 106.919 22.5292C107.093 22.9689 107.453 23.387 107.997 23.7828C108.509 24.1551 109.017 24.382 109.521 24.4641C110.026 24.5427 110.513 24.5028 110.981 24.3433C111.455 24.1832 111.884 23.9282 112.271 23.5781L111.731 24.9179L111.39 24.6699C110.976 25.0299 110.508 25.2943 109.985 25.462C109.462 25.6297 108.901 25.6579 108.302 25.5453C107.704 25.4386 107.08 25.1489 106.43 24.6769C105.674 24.1275 105.164 23.5394 104.901 22.9121C104.64 22.287 104.601 21.6204 104.784 20.9115C104.964 20.2056 105.336 19.465 105.899 18.6905L110.375 12.5322ZM116.801 17.2029L118.396 18.3621L111.408 27.9786L109.813 26.8194L111.555 24.5626L111.558 24.4178L116.801 17.2029Z" fill="currentColor"/>
<path d="M124.388 31.8367L125.331 30.5614L125.643 30.9361C126.601 30.5362 127.502 30.4143 128.348 30.5702C129.195 30.7256 129.933 31.2228 130.564 32.0601C130.721 32.2688 130.844 32.4682 130.934 32.6593C131.026 32.8476 131.099 33.0235 131.152 33.1859L129.701 34.4365C129.63 34.2372 129.535 34.0261 129.416 33.8027C129.301 33.5775 129.154 33.3459 128.975 33.1091C128.437 32.3943 127.771 31.9223 126.978 31.6919C126.182 31.4638 125.319 31.5125 124.388 31.8367ZM118.636 36.2905L117.45 34.7162L126.944 27.5618L128.102 29.098L125.238 31.1296L125.214 31.3336L118.636 36.2905Z" fill="currentColor"/>
<path d="M126.805 52.2298C126.156 50.537 126.079 49.1058 126.576 47.9355C127.075 46.7605 128.092 45.8774 129.63 45.2876L131.609 44.5283C133.172 43.9285 134.53 43.8634 135.681 44.333C136.83 44.808 137.698 45.8106 138.285 47.3403C138.681 48.3717 138.821 49.304 138.704 50.1372C138.585 50.9756 138.239 51.7044 137.666 52.323C137.098 52.9433 136.325 53.4417 135.346 53.8176L134.935 53.9747C134.695 54.0668 134.449 54.1506 134.198 54.2262C133.948 54.3013 133.699 54.367 133.454 54.4227L132.805 52.7317C133.172 52.6074 133.52 52.4848 133.847 52.364C134.177 52.2415 134.477 52.1283 134.747 52.0246C135.423 51.7648 135.952 51.4371 136.334 51.0401C136.718 50.6473 136.951 50.1888 137.034 49.6652C137.117 49.1416 137.035 48.5582 136.788 47.915C136.421 46.9575 135.868 46.3471 135.131 46.0827C134.394 45.8188 133.51 45.8845 132.479 46.2808L131.42 46.6872L131.197 46.7851L130.143 47.1897C129.678 47.3685 129.286 47.5972 128.97 47.8757C128.649 48.1559 128.411 48.4925 128.257 48.8865C128.099 49.2823 128.037 49.732 128.07 50.2368C128.102 50.7417 128.238 51.3045 128.476 51.9255C128.753 52.6461 129.104 53.2811 129.531 53.8293C129.958 54.3781 130.44 54.8624 130.979 55.2834L129.317 55.7243C128.818 55.352 128.351 54.8759 127.916 54.2966C127.481 53.7132 127.11 53.0243 126.805 52.2298ZM133.307 54.0404L130.277 46.146L131.663 45.6142L134.693 53.5086L133.307 54.0404Z" fill="currentColor"/>
<path d="M4.78407 94.4358L4.07227 92.6099L18.788 87.51L19.9249 90.4253L10.7828 97.9543L10.8432 98.1091L22.6684 97.463L23.81 100.389L9.52516 106.596L8.81335 104.77L14.8467 102.182L21.1943 99.4841L21.1146 99.2795L8.8456 99.9332L8.08219 97.9749L17.5532 90.1456L17.4758 89.9462L10.9617 92.2505L4.78407 94.4358Z" fill="currentColor"/>
<path d="M20.0663 121.044C18.8561 119.694 18.2733 118.383 18.3173 117.109C18.3671 115.836 19.005 114.65 20.2316 113.552L21.81 112.136C23.0572 111.019 24.3002 110.475 25.5409 110.507C26.7839 110.535 27.9536 111.161 29.0501 112.385C29.7871 113.207 30.2485 114.03 30.4332 114.853C30.6238 115.676 30.5616 116.478 30.2474 117.261C29.9354 118.045 29.3901 118.786 28.6121 119.484L28.2849 119.777C28.0902 119.951 27.8891 120.116 27.6816 120.27C27.474 120.43 27.2664 120.581 27.0601 120.724L25.851 119.376C26.1507 119.128 26.4315 118.89 26.693 118.66C26.9551 118.43 27.1949 118.218 27.4136 118.022C27.953 117.539 28.3306 117.044 28.5458 116.537C28.7639 116.033 28.8185 115.522 28.7094 115.003C28.5974 114.486 28.3113 113.972 27.8522 113.459C27.1679 112.695 26.4356 112.32 25.6552 112.334C24.8725 112.35 24.0698 112.727 23.2471 113.464L22.4028 114.221L22.2293 114.392L21.3849 115.149C21.0167 115.479 20.7335 115.831 20.5365 116.205C20.3366 116.58 20.2351 116.98 20.2316 117.403C20.2252 117.829 20.3272 118.272 20.5371 118.732C20.7476 119.192 21.0748 119.669 21.5186 120.165C22.034 120.739 22.5887 121.207 23.1832 121.568C23.7778 121.928 24.401 122.209 25.0548 122.41L23.6582 123.414C23.0589 123.244 22.4521 122.964 21.837 122.575C21.2243 122.188 20.6344 121.677 20.0663 121.044ZM26.7827 120.415L21.1422 114.123L22.2474 113.132L27.888 119.424L26.7827 120.415Z" fill="currentColor"/>
<path d="M37.0072 134.319C35.4469 133.395 34.4971 132.319 34.1564 131.092C33.8216 129.863 34.0737 128.54 34.9134 127.123L35.9934 125.299C36.8471 123.859 37.8696 122.967 39.0622 122.624C40.2566 122.278 41.5606 122.523 42.9737 123.36C43.9241 123.923 44.6107 124.569 45.0346 125.299C45.4638 126.027 45.6456 126.811 45.5805 127.651C45.5189 128.493 45.2217 129.364 44.6893 130.263L44.4653 130.641C44.3322 130.866 44.1897 131.083 44.0379 131.293C43.8878 131.507 43.7353 131.714 43.5811 131.912L42.0232 130.989C42.2343 130.663 42.4307 130.352 42.6113 130.054C42.7925 129.756 42.9572 129.481 43.1068 129.229C43.4762 128.606 43.6872 128.02 43.7406 127.472C43.7975 126.926 43.6954 126.422 43.4357 125.959C43.1736 125.5 42.7468 125.096 42.154 124.745C41.2715 124.222 40.4606 124.084 39.7207 124.332C38.979 124.582 38.3264 125.183 37.7635 126.133L37.1854 127.109L37.0716 127.324L36.4935 128.3C36.2414 128.726 36.0772 129.146 36.0016 129.562C35.9236 129.98 35.9471 130.392 36.0708 130.797C36.1927 131.205 36.4232 131.596 36.7615 131.972C37.1004 132.348 37.556 132.705 38.1282 133.044C38.7925 133.437 39.4621 133.717 40.137 133.882C40.8119 134.047 41.4914 134.128 42.1751 134.123L41.1455 135.5C40.5228 135.518 39.8597 135.433 39.1561 135.247C38.456 135.062 37.7395 134.753 37.0072 134.319ZM43.2234 131.7L35.9535 127.394L36.7099 126.117L43.9804 130.423L43.2234 131.7Z" fill="currentColor"/>
<path d="M56.4382 141.757C55.5458 141.54 54.8609 141.231 54.3842 140.829C53.9023 140.431 53.605 139.929 53.4918 139.323C53.3816 138.721 53.425 138.013 53.6232 137.198L55.3957 129.911L57.2878 130.371L55.571 137.433C55.3869 138.191 55.4238 138.793 55.6818 139.239C55.9409 139.681 56.4821 140.001 57.3053 140.201C57.7709 140.315 58.2317 140.371 58.6873 140.373C59.1388 140.376 59.578 140.329 60.006 140.229L59.4273 141.83C59.011 141.932 58.5402 141.976 58.0136 141.963C57.49 141.953 56.9653 141.885 56.4382 141.757ZM61.6067 132.337L53.2925 130.316L53.6671 128.776L62.1602 130.841L61.6067 132.337ZM57.3599 129.875L55.5246 129.429L56.3015 126.183L58.2892 126.404L57.3599 129.875Z" fill="currentColor"/>
<path d="M75.6267 143.311C73.9257 143.378 72.6164 142.967 71.6982 142.08C70.7841 141.197 70.2934 139.891 70.2254 138.162L70.1544 136.347C70.087 134.63 70.4769 133.296 71.323 132.343C72.1732 131.391 73.4449 130.881 75.1377 130.815C76.8427 130.748 78.1538 131.156 79.072 132.04C79.986 132.923 80.4768 134.223 80.5437 135.94L80.6146 137.756C80.682 139.484 80.295 140.825 79.4531 141.777C78.607 142.733 77.3317 143.245 75.6267 143.311ZM75.5639 141.709C76.6199 141.667 77.4091 141.324 77.9304 140.678C78.4557 140.031 78.6955 139.119 78.6492 137.939L78.5695 135.91C78.5237 134.743 78.2142 133.86 77.6401 133.261C77.0702 132.661 76.257 132.382 75.2004 132.423C74.1561 132.464 73.3693 132.806 72.8398 133.449C72.3145 134.091 72.0747 134.996 72.1198 136.163L72.1996 138.192C72.2459 139.371 72.556 140.262 73.1301 140.865C73.7082 141.469 74.5197 141.75 75.5639 141.709Z" fill="currentColor"/>
<path d="M97.003 138.799C95.3935 139.366 94.0438 139.352 92.9538 138.759C91.8644 138.169 91.0394 137.077 90.4777 135.482L89.862 133.735C89.2992 132.136 89.2599 130.767 89.7442 129.627C90.2285 128.488 91.2716 127.636 92.8734 127.072C93.3478 126.905 93.7963 126.797 94.2202 126.748C94.6389 126.697 95.0282 126.688 95.3882 126.721C95.7482 126.754 96.0631 126.808 96.3334 126.886L97.0604 128.449C96.606 128.302 96.0983 128.219 95.5366 128.199C94.9731 128.183 94.3586 128.292 93.6943 128.526C92.6225 128.904 91.9283 129.482 91.6105 130.261C91.2968 131.039 91.339 131.993 91.7377 133.124L92.3211 134.783C92.7116 135.891 93.2733 136.653 94.0068 137.066C94.7438 137.478 95.648 137.495 96.7198 137.118C97.4105 136.875 97.9728 136.57 98.4055 136.203C98.8388 135.837 99.2029 135.446 99.4978 135.032L99.9018 136.734C99.6473 137.084 99.2815 137.452 98.8048 137.838C98.3316 138.223 97.7312 138.543 97.003 138.799Z" fill="currentColor"/>
<path d="M103.385 122.078L104.971 120.926L109.317 126.906C109.684 127.412 110.076 127.803 110.492 128.078C110.907 128.354 111.352 128.478 111.827 128.451C112.296 128.424 112.805 128.211 113.352 127.812C113.865 127.44 114.238 127.027 114.47 126.574C114.698 126.12 114.811 125.644 114.807 125.148C114.801 124.648 114.691 124.161 114.477 123.684L115.584 124.612L115.239 124.863C115.457 125.365 115.565 125.891 115.563 126.441C115.558 126.993 115.411 127.535 115.123 128.067C114.837 128.603 114.369 129.107 113.719 129.579C112.963 130.129 112.246 130.432 111.569 130.489C110.891 130.546 110.244 130.377 109.629 129.982C109.013 129.593 108.424 129.011 107.861 128.236L103.385 122.078ZM109.808 117.41L111.407 116.248L118.396 125.864L116.796 127.027L115.193 124.669L115.051 124.625L109.808 117.41Z" fill="currentColor"/>
<path d="M122.268 110.792L120.778 110.234L121.052 109.831C120.404 109.02 120.037 108.187 119.954 107.331C119.874 106.477 120.149 105.632 120.781 104.794C120.936 104.589 121.092 104.414 121.25 104.27C121.405 104.129 121.554 104.011 121.696 103.915L123.298 104.966C123.123 105.092 122.947 105.241 122.767 105.414C122.585 105.589 122.404 105.797 122.223 106.037C121.687 106.748 121.418 107.517 121.415 108.343C121.41 109.172 121.694 109.988 122.268 110.792ZM128.13 115.091L126.944 116.665L117.449 109.511L118.607 107.974L121.35 110.167L121.557 110.137L128.13 115.091Z" fill="currentColor"/>
<path d="M138.403 96.4469C137.753 98.1396 136.852 99.2566 135.698 99.7978C134.543 100.334 133.197 100.307 131.659 99.7168L129.68 98.9575C128.117 98.3577 127.066 97.4988 126.528 96.3806C125.987 95.2613 126.01 93.9344 126.599 92.4006C126.994 91.3692 127.516 90.5841 128.165 90.0441C128.811 89.4988 129.553 89.1881 130.392 89.1119C131.233 89.0315 132.141 89.1787 133.117 89.5528L133.527 89.7105C133.771 89.8043 134.009 89.9081 134.24 90.0224C134.477 90.1344 134.706 90.2499 134.928 90.369L134.279 92.0599C133.922 91.9063 133.582 91.765 133.259 91.636C132.935 91.5076 132.636 91.3909 132.363 91.286C131.686 91.0262 131.073 90.9166 130.524 90.9559C129.976 90.9916 129.496 91.1763 129.084 91.51C128.675 91.8453 128.348 92.3343 128.101 92.977C127.734 93.9344 127.734 94.7571 128.102 95.4454C128.473 96.1349 129.175 96.6773 130.206 97.0731L131.265 97.4794L131.496 97.5556L132.555 97.962C133.017 98.139 133.459 98.2305 133.881 98.2352C134.306 98.2416 134.709 98.1502 135.087 97.9602C135.469 97.772 135.816 97.4788 136.13 97.0819C136.444 96.6849 136.719 96.176 136.957 95.5551C137.234 94.8345 137.397 94.1273 137.447 93.4343C137.497 92.7413 137.462 92.0576 137.343 91.3845L138.873 92.169C138.995 92.7799 139.023 93.4478 138.957 94.1731C138.892 94.8943 138.707 95.6524 138.403 96.4469ZM134.779 90.7571L131.752 98.6456L130.366 98.1138L133.393 90.2253L134.779 90.7571Z" fill="currentColor"/>
<path d="M0.98291 72.1141C0.98291 68.8306 3.64486 66.1687 6.92832 66.1687C10.2118 66.1687 12.8737 68.8306 12.8737 72.1141C12.8737 75.3976 10.2118 78.0595 6.92832 78.0595C3.64486 78.0595 0.98291 75.3976 0.98291 72.1141Z" fill="currentColor"/>
<path d="M130.564 72.1141C130.564 68.8306 133.226 66.1687 136.51 66.1687C139.793 66.1687 142.455 68.8306 142.455 72.1141C142.455 75.3976 139.793 78.0595 136.51 78.0595C133.226 78.0595 130.564 75.3976 130.564 72.1141Z" fill="currentColor"/>
</g>
</g>
</g>
<defs>
<clipPath id="clip0_271_1000">
<rect width="395.52" height="143.318" fill="white"/>
</clipPath>
<clipPath id="clip1_271_1000">
<rect width="231.906" height="53.1031" fill="white" transform="translate(163.614 45.1074)"/>
</clipPath>
<clipPath id="clip2_271_1000">
<rect width="231.906" height="53.1031" fill="white" transform="translate(163.614 45.1074)"/>
</clipPath>
<clipPath id="clip3_271_1000">
<rect width="231.906" height="34.3887" fill="white" transform="translate(163.614 45.1074)"/>
</clipPath>
<clipPath id="clip4_271_1000">
<rect width="231.906" height="34.3887" fill="white" transform="translate(163.614 45.1074)"/>
</clipPath>
<clipPath id="clip5_271_1000">
<rect width="220.311" height="10.596" fill="white" transform="translate(163.614 87.6145)"/>
</clipPath>
<clipPath id="clip6_271_1000">
<rect width="220.311" height="10.596" fill="white" transform="translate(163.614 87.6145)"/>
</clipPath>
<clipPath id="clip7_271_1000">
<rect width="143.318" height="143.318" fill="white"/>
</clipPath>
<clipPath id="clip8_271_1000">
<rect width="143.318" height="143.318" fill="white"/>
</clipPath>
<clipPath id="clip9_271_1000">
<rect width="85" height="65.1525" fill="white" transform="translate(28.4307 40.4595)"/>
</clipPath>
<clipPath id="clip10_271_1000">
<rect width="85" height="65.1525" fill="white" transform="translate(28.4307 40.4595)"/>
</clipPath>
</defs>
</svg>
