<svg width="131" height="130" viewBox="0 0 131 130" fill="none" xmlns="http://www.w3.org/2000/svg">
<g clip-path="url(#clip0_284_1446)">
<g clip-path="url(#clip1_284_1446)">
<g clip-path="url(#clip2_284_1446)">
<g clip-path="url(#clip3_284_1446)">
<path d="M102.993 50.8022C101.538 53.9068 92.8188 61.3759 92.9778 67.0906C92.9995 67.8553 90.3709 68.3372 90.3475 67.7951C90.0949 61.9389 98.3253 56.3103 100.712 50.4692C103.419 43.8434 97.6694 40.855 94.748 41.3754C93.7692 41.5503 90.4579 42.9357 88.9002 47.419C88.7212 47.9335 86.29 48.5877 86.285 47.9937C86.2624 45.4371 85.691 42.2773 83.2365 41.1495C81.1977 40.2117 72.4829 41.1805 76.317 51.4078C78.1893 56.404 87.9774 62.5454 88.9169 67.0831C89.3988 69.4189 69.8819 70.0488 66.6836 67.2287C62.8453 63.8438 62.0179 53.9871 61.6239 49.0629C61.5963 49.6 60.077 70.4722 58.9434 94.6414C58.9175 95.196 56.4872 95.8553 56.3282 95.2161C53.2538 82.8697 51.3748 70.253 48.3521 57.8981C47.9439 60.5175 44.7021 75.0667 42.6951 79.4087C42.4742 79.8855 40.059 80.5782 40.0799 79.9834C40.2163 76.0673 40.0038 70.862 36.0333 68.7914C34.4697 67.9758 30.7686 67.8729 24.3009 67.4997C23.773 67.4696 23.7328 67.1375 24.1327 66.8731C24.6723 66.5117 25.3542 66.3737 25.9925 66.3737C28.3759 66.3728 34.4162 65.9955 38.5063 67.8745C40.8981 68.9747 41.9062 71.3531 42.3881 73.7842C43.1904 71.1816 46.1218 56.2634 46.6957 51.417C46.7635 50.8532 49.1369 50.2308 49.3109 50.8431C52.7978 63.1001 54.737 75.7118 57.4719 88.1435C57.2326 72.3486 60.1975 46.748 59.3751 35.2984C59.3258 34.6207 61.7795 33.9423 62.0045 34.5931C63.5907 39.1701 64.2776 44.0458 64.3403 48.8529C64.4959 60.7275 67.9845 65.5555 69.262 66.3871C70.2651 67.0396 81.4863 66.8631 85.8951 66.8765C84.6495 60.244 73.8156 58.0052 72.9689 49.0704C72.6728 45.9457 74.0088 42.4814 76.7244 40.727C83.8012 36.1567 87.903 42.3408 88.4635 44.209C93.2421 36.642 99.6345 39.9264 101.606 42.3392C103.52 44.6816 104.304 48.0104 102.993 50.8022Z" fill="#0A4D68"/>
</g>
</g>
<path d="M14.8854 49.082L14.2397 50.7382L1.28235 45.1075L2.3136 42.4632L13.0404 43.0498L13.0973 42.9041L4.80264 36.08L5.83815 33.425L19.188 38.0473L18.5424 39.7029L12.9202 37.7244L7.02523 35.6284L6.9529 35.814L15.5459 42.911L14.8514 44.6922L3.72246 44.0991L3.65013 44.2848L9.41375 46.7461L14.8854 49.082Z" fill="#0A4D68"/>
<path d="M27.0918 28.5495C25.9941 29.7744 24.8703 30.428 23.7204 30.5115C22.5653 30.595 21.4319 30.1382 20.3193 29.1409L18.8875 27.8571C17.7563 26.8434 17.1426 25.7744 17.0458 24.6511C16.9538 23.5273 17.4042 22.4115 18.3961 21.3042C19.0647 20.558 19.7598 20.0602 20.481 19.8097C21.2075 19.5592 21.9382 19.5369 22.6743 19.7432C23.4098 19.9448 24.1321 20.3628 24.841 20.9984L25.1378 21.2643C25.3117 21.4201 25.4808 21.5839 25.6452 21.7552C25.8095 21.927 25.9654 22.0998 26.1122 22.2753L25.0155 23.4986C24.7629 23.2529 24.5203 23.0236 24.2874 22.8098C24.0518 22.5939 23.8364 22.3982 23.6417 22.2232C23.1524 21.7844 22.6684 21.493 22.1903 21.3489C21.7143 21.2021 21.2479 21.2031 20.7905 21.3531C20.3331 21.5026 19.8965 21.81 19.479 22.2753C18.8583 22.9678 18.594 23.6661 18.6854 24.3708C18.7775 25.0755 19.196 25.7616 19.9422 26.4301L20.7086 27.1173L20.8798 27.2566L21.642 27.9395C21.9786 28.2416 22.3254 28.4628 22.6817 28.6038C23.0407 28.7468 23.4109 28.799 23.7922 28.7607C24.1768 28.7245 24.5661 28.5889 24.9602 28.3533C25.3543 28.1182 25.7526 27.7762 26.1552 27.3268C26.6227 26.8056 26.9897 26.2589 27.2556 25.6877C27.5221 25.1165 27.7135 24.5261 27.8305 23.9171L28.874 25.0766C28.7799 25.6334 28.5884 26.2073 28.3007 26.7976C28.0103 27.3906 27.6072 27.9746 27.0918 28.5495ZM25.8643 22.5519L20.7442 28.2634L19.7417 27.3646L24.8612 21.6531L25.8643 22.5519Z" fill="#0A4D68"/>
<path d="M39.811 18.6821C38.3958 19.5203 37.1279 19.8064 36.0057 19.54C34.8792 19.2725 33.9352 18.496 33.1736 17.2105L32.1939 15.5565C31.4201 14.2497 31.1552 13.0456 31.4004 11.9447C31.6504 10.8448 32.4152 9.91622 33.6943 9.15834C34.5564 8.64777 35.3691 8.38131 36.1317 8.3595C36.8997 8.33876 37.6039 8.53714 38.2437 8.95517C38.8851 9.36842 39.4478 9.9843 39.9334 10.8028L40.136 11.1458C40.2551 11.3469 40.3674 11.5538 40.4727 11.7665C40.578 11.9798 40.6742 12.1915 40.762 12.4031L39.3483 13.2403C39.1813 12.9302 39.0191 12.6382 38.8612 12.3643C38.7016 12.0877 38.5548 11.8362 38.4208 11.6112C38.0857 11.0459 37.7118 10.6225 37.2991 10.3412C36.8896 10.0582 36.4439 9.91888 35.9631 9.9242C35.4823 9.92952 34.9728 10.0912 34.4351 10.4098C33.6347 10.8836 33.1731 11.4703 33.0491 12.1702C32.9252 12.8696 33.1183 13.6503 33.6289 14.5124L34.1533 15.3974L34.2751 15.582L34.7963 16.4622C35.0271 16.8515 35.2909 17.1669 35.5882 17.4083C35.8871 17.6525 36.2248 17.8136 36.6008 17.8913C36.9784 17.9721 37.3906 17.9599 37.8368 17.854C38.2831 17.7482 38.766 17.5413 39.2851 17.2344C39.8876 16.8776 40.4014 16.4664 40.8274 16.0016C41.2529 15.5368 41.6129 15.031 41.9076 14.4853L42.5543 15.9048C42.2969 16.4079 41.9422 16.8972 41.4901 17.3743C41.0348 17.8524 40.4748 18.2885 39.811 18.6821ZM40.4423 12.5925L33.8432 16.5015L33.1566 15.3427L39.7557 11.4341L40.4423 12.5925Z" fill="#0A4D68"/>
<path d="M54.3465 13.1478C53.5371 13.3446 52.8568 13.3807 52.3048 13.2563C51.7506 13.1361 51.3017 12.8553 50.9581 12.4138C50.6177 11.9719 50.3582 11.3826 50.1795 10.6465L48.5723 4.03618L50.2891 3.61868L51.8463 10.0248C52.0133 10.7119 52.2936 11.1799 52.6866 11.4283C53.0839 11.6794 53.6541 11.7139 54.397 11.5336C54.8193 11.431 55.2145 11.2853 55.5825 11.0954C55.9506 10.906 56.2846 10.6843 56.5845 10.4306L56.785 11.9618C56.4925 12.2176 56.133 12.4489 55.707 12.6564C55.2778 12.868 54.8247 13.0318 54.3465 13.1478ZM54.5922 3.3985L47.0453 5.23337L46.7065 3.84153L54.4109 1.96836L54.5922 3.3985ZM50.1401 3.18948L48.476 3.59422L47.75 0.655235L49.4424 0L50.1401 3.18948Z" fill="#0A4D68"/>
<path d="M68.661 12.1548C67.1144 12.0942 65.9576 11.6304 65.1902 10.763C64.4265 9.89923 64.0749 8.68343 64.1361 7.11555L64.201 5.46895C64.2621 3.90798 64.7089 2.72888 65.5412 1.93111C66.3773 1.13014 67.5654 0.759979 69.1046 0.820077C70.6475 0.880708 71.8026 1.34235 72.5701 2.2066C73.3344 3.0666 73.6859 4.27708 73.6247 5.83752L73.5604 7.48465C73.4992 9.05253 73.0535 10.2375 72.2244 11.0384C71.3915 11.8431 70.2039 12.2154 68.661 12.1548ZM68.7179 10.7018C69.6726 10.739 70.4103 10.4843 70.9309 9.93646C71.4484 9.38866 71.7276 8.58078 71.7697 7.51177L71.842 5.67105C71.8835 4.60895 71.6675 3.78672 71.1942 3.20381C70.7177 2.62091 70.0018 2.31084 69.0477 2.27361C68.0967 2.23639 67.3612 2.48954 66.8405 3.03309C66.3161 3.57664 66.0332 4.37973 65.9917 5.44183L65.9194 7.28255C65.8773 8.35156 66.0965 9.17964 66.5767 9.76627C67.0532 10.3529 67.767 10.6646 68.7179 10.7018Z" fill="#0A4D68"/>
<path d="M84.7474 15.5512C83.2874 15.0375 82.3408 14.2604 81.9073 13.2207C81.4728 12.1846 81.51 10.9433 82.0195 9.49721L82.5774 7.91177C83.0891 6.45877 83.8395 5.46847 84.8282 4.94141C85.8185 4.41063 87.0401 4.40105 88.4932 4.91269C88.9234 5.06427 89.3026 5.24137 89.6308 5.44454C89.9541 5.64983 90.2339 5.86629 90.4695 6.09392C90.7088 6.32262 90.9003 6.54067 91.045 6.74756L90.6753 8.26758C90.4349 7.90114 90.1217 7.55278 89.7355 7.22303C89.3494 6.89276 88.8532 6.62098 88.2464 6.40771C87.2742 6.0652 86.4562 6.08009 85.7924 6.45132C85.1255 6.82149 84.6112 7.5198 84.2501 8.54627L83.7204 10.0503C83.3662 11.0561 83.3326 11.9145 83.6193 12.6245C83.9028 13.3334 84.5304 13.8589 85.5026 14.2009C86.1291 14.4216 86.6998 14.5253 87.2141 14.5125C87.7321 14.5008 88.2113 14.4317 88.6522 14.3051L87.9703 15.7379C87.5917 15.8405 87.1242 15.8927 86.5673 15.8953C86.0142 15.8985 85.4074 15.7836 84.7474 15.5512Z" fill="#0A4D68"/>
<path d="M100.618 11.3677L102.056 12.4128L98.1137 17.8371C97.7802 18.296 97.5526 18.7433 97.4313 19.1789C97.3127 19.6166 97.3303 20.0357 97.4834 20.4357C97.6419 20.8345 97.9679 21.2138 98.4615 21.5727C98.9263 21.9105 99.3869 22.1163 99.8438 22.1908C100.302 22.262 100.744 22.2259 101.168 22.0812C101.598 21.936 101.988 21.7046 102.339 21.3871L101.848 22.6024L101.539 22.3774C101.164 22.704 100.739 22.9438 100.264 23.096C99.7901 23.2481 99.2811 23.2736 98.7381 23.1715C98.1956 23.0747 97.6297 22.812 97.0399 22.3838C96.3543 21.8855 95.8922 21.352 95.6528 20.783C95.4167 20.216 95.381 19.6113 95.547 18.9683C95.7103 18.328 96.0475 17.6562 96.5586 16.9537L100.618 11.3677ZM106.448 15.6044L107.894 16.6558L101.555 25.3786L100.109 24.3272L101.689 22.2801L101.692 22.1487L106.448 15.6044Z" fill="#0A4D68"/>
<path d="M113.33 28.8782L114.184 27.7214L114.467 28.0613C115.336 27.6985 116.154 27.5879 116.922 27.7294C117.689 27.8703 118.359 28.3213 118.932 29.0808C119.074 29.2702 119.186 29.451 119.267 29.6244C119.35 29.7951 119.417 29.9546 119.465 30.102L118.148 31.2364C118.084 31.0556 117.998 30.8641 117.89 30.6615C117.786 30.4572 117.653 30.2472 117.49 30.0323C117.002 29.384 116.398 28.9558 115.679 28.7468C114.957 28.5399 114.174 28.5841 113.33 28.8782ZM108.112 32.9181L107.036 31.4901L115.648 25.0005L116.698 26.3939L114.1 28.2368L114.079 28.4219L108.112 32.9181Z" fill="#0A4D68"/>
<path d="M115.522 47.3764C114.933 45.841 114.863 44.5427 115.314 43.4811C115.766 42.4153 116.689 41.6144 118.084 41.0793L119.879 40.3906C121.297 39.8465 122.529 39.7875 123.573 40.2135C124.615 40.6443 125.402 41.5537 125.935 42.9413C126.294 43.8768 126.421 44.7225 126.315 45.4782C126.207 46.2388 125.893 46.8999 125.373 47.461C124.859 48.0236 124.157 48.4757 123.269 48.8166L122.897 48.9592C122.679 49.0427 122.456 49.1187 122.228 49.1873C122 49.2554 121.775 49.315 121.553 49.3655L120.964 47.8317C121.297 47.7189 121.613 47.6077 121.909 47.4982C122.208 47.387 122.481 47.2844 122.725 47.1902C123.339 46.9546 123.819 46.6573 124.166 46.2973C124.513 45.9409 124.725 45.525 124.8 45.0501C124.876 44.5752 124.801 44.046 124.577 43.4625C124.244 42.594 123.743 42.0404 123.074 41.8005C122.405 41.5612 121.603 41.6207 120.668 41.9803L119.708 42.3488L119.506 42.4377L118.55 42.8046C118.128 42.9669 117.772 43.1743 117.485 43.4269C117.194 43.6811 116.979 43.9864 116.839 44.3438C116.696 44.7028 116.639 45.1107 116.669 45.5686C116.698 46.0266 116.821 46.5371 117.037 47.1004C117.288 47.754 117.607 48.33 117.994 48.8273C118.381 49.3251 118.819 49.7644 119.308 50.1462L117.8 50.5462C117.347 50.2085 116.924 49.7766 116.53 49.2511C116.135 48.722 115.799 48.097 115.522 47.3764ZM121.42 49.0187L118.671 41.858L119.928 41.3756L122.676 48.5363L121.42 49.0187Z" fill="#0A4D68"/>
<path d="M4.84 85.6602L4.19434 84.0041L17.5426 79.3781L18.5739 82.0224L10.2813 88.8518L10.3361 88.9922L21.0624 88.4062L22.0979 91.0606L9.14051 96.6907L8.49485 95.0346L13.9675 92.687L19.7253 90.2394L19.653 90.0538L8.5241 90.6468L7.83163 88.8705L16.4226 81.7687L16.3524 81.5879L10.4435 83.678L4.84 85.6602Z" fill="#0A4D68"/>
<path d="M18.702 109.796C17.6043 108.571 17.0756 107.382 17.1155 106.227C17.1607 105.072 17.7394 103.996 18.852 103L20.2837 101.716C21.415 100.702 22.5425 100.209 23.6679 100.238C24.7954 100.264 25.8564 100.831 26.851 101.941C27.5195 102.687 27.9381 103.434 28.1056 104.18C28.2784 104.926 28.2221 105.655 27.937 106.364C27.654 107.076 27.1594 107.748 26.4537 108.381L26.1569 108.647C25.9803 108.805 25.7979 108.954 25.6096 109.094C25.4214 109.239 25.2331 109.376 25.0459 109.506L23.9492 108.282C24.221 108.058 24.4757 107.842 24.7129 107.633C24.9507 107.425 25.1682 107.232 25.3666 107.055C25.8559 106.616 26.1984 106.167 26.3936 105.708C26.5914 105.251 26.6409 104.787 26.542 104.316C26.4404 103.847 26.1808 103.381 25.7644 102.915C25.1437 102.223 24.4795 101.883 23.7716 101.895C23.0615 101.909 22.3334 102.251 21.5873 102.92L20.8214 103.607L20.664 103.762L19.8981 104.449C19.5641 104.748 19.3072 105.067 19.1285 105.406C18.9472 105.747 18.8552 106.11 18.852 106.493C18.8461 106.879 18.9387 107.281 19.1291 107.698C19.32 108.116 19.6168 108.549 20.0194 108.998C20.4869 109.519 20.99 109.944 21.5293 110.271C22.0686 110.598 22.6339 110.853 23.227 111.035L21.9601 111.946C21.4165 111.791 20.8661 111.538 20.3082 111.184C19.7524 110.834 19.2174 110.37 18.702 109.796ZM24.7943 109.225L19.6779 103.518L20.6805 102.619L25.7968 108.326L24.7943 109.225Z" fill="#0A4D68"/>
<path d="M34.0687 121.838C32.6534 120.999 31.7918 120.023 31.4828 118.91C31.1791 117.795 31.4078 116.595 32.1694 115.31L33.1491 113.656C33.9235 112.349 34.851 111.54 35.9328 111.229C37.0161 110.915 38.199 111.137 39.4807 111.897C40.3428 112.407 40.9656 112.993 41.3502 113.655C41.7395 114.316 41.9043 115.027 41.8453 115.789C41.7895 116.553 41.5198 117.342 41.0369 118.158L40.8337 118.501C40.713 118.705 40.5838 118.902 40.446 119.092C40.3099 119.287 40.1716 119.475 40.0317 119.654L38.6186 118.817C38.8101 118.521 38.9882 118.239 39.152 117.968C39.3164 117.698 39.4658 117.449 39.6015 117.221C39.9365 116.655 40.128 116.124 40.1764 115.627C40.228 115.131 40.1354 114.674 39.8998 114.254C39.6621 113.838 39.2749 113.471 38.7372 113.152C37.9368 112.679 37.2012 112.554 36.53 112.778C35.8573 113.005 35.2653 113.55 34.7547 114.412L34.2303 115.297L34.1272 115.493L33.6028 116.378C33.3741 116.764 33.2251 117.145 33.1565 117.522C33.0858 117.902 33.1071 118.275 33.2193 118.642C33.3299 119.012 33.5389 119.368 33.8458 119.709C34.1532 120.049 34.5665 120.373 35.0855 120.681C35.6881 121.038 36.2955 121.291 36.9077 121.441C37.5198 121.591 38.1362 121.664 38.7564 121.659L37.8224 122.909C37.2576 122.925 36.6561 122.848 36.0179 122.679C35.3828 122.511 34.7329 122.231 34.0687 121.838ZM39.7073 119.462L33.1129 115.556L33.799 114.397L40.3939 118.303L39.7073 119.462Z" fill="#0A4D68"/>
<path d="M51.6941 128.584C50.8846 128.387 50.2634 128.107 49.831 127.743C49.3938 127.382 49.1242 126.926 49.0215 126.376C48.9215 125.831 48.9609 125.188 49.1407 124.449L50.7484 117.839L52.4647 118.256L50.9075 124.662C50.7405 125.349 50.774 125.896 51.008 126.3C51.2431 126.701 51.7339 126.992 52.4807 127.173C52.9029 127.276 53.321 127.327 53.7342 127.328C54.1437 127.332 54.5421 127.289 54.9303 127.198L54.4054 128.65C54.0278 128.743 53.6007 128.783 53.1231 128.771C52.6482 128.762 52.1722 128.7 51.6941 128.584ZM56.3823 120.04L48.8407 118.206L49.1805 116.809L56.8843 118.682L56.3823 120.04ZM52.5301 117.806L50.8654 117.401L51.5701 114.458L53.3731 114.658L52.5301 117.806Z" fill="#0A4D68"/>
<path d="M69.0994 129.993C67.5565 130.054 66.3689 129.682 65.536 128.877C64.7069 128.076 64.2617 126.891 64.2 125.323L64.1357 123.677C64.0745 122.119 64.4282 120.909 65.1956 120.045C65.9668 119.181 67.1204 118.719 68.6558 118.659C70.2024 118.598 71.3917 118.968 72.2245 119.77C73.0537 120.571 73.4988 121.75 73.5595 123.308L73.6238 124.955C73.685 126.523 73.334 127.738 72.5702 128.602C71.8028 129.47 70.646 129.933 69.0994 129.993ZM69.0425 128.54C70.0003 128.503 70.7162 128.191 71.189 127.605C71.6656 127.018 71.8831 126.191 71.8411 125.121L71.7687 123.28C71.7272 122.222 71.4464 121.421 70.9258 120.877C70.4088 120.333 69.6711 120.08 68.7127 120.118C67.7655 120.155 67.0518 120.465 66.5715 121.048C66.095 121.631 65.8775 122.451 65.9184 123.51L65.9908 125.35C66.0328 126.419 66.3141 127.228 66.8348 127.775C67.3592 128.322 68.0953 128.578 69.0425 128.54Z" fill="#0A4D68"/>
<path d="M88.4894 125.901C87.0294 126.415 85.8051 126.403 84.8164 125.865C83.8283 125.329 83.0799 124.339 82.5704 122.892L82.012 121.307C81.5014 119.857 81.4658 118.616 81.9051 117.582C82.3444 116.548 83.2906 115.775 84.7436 115.263C85.1738 115.112 85.5807 115.014 85.9652 114.97C86.345 114.924 86.6981 114.916 87.0247 114.945C87.3512 114.975 87.6368 115.025 87.882 115.095L88.5415 116.513C88.1293 116.38 87.6687 116.304 87.1592 116.286C86.6481 116.271 86.0907 116.371 85.4882 116.583C84.5159 116.925 83.8862 117.45 83.598 118.156C83.3134 118.862 83.3517 119.728 83.7134 120.754L84.2426 122.258C84.5968 123.263 85.1063 123.954 85.7716 124.329C86.4402 124.703 87.2603 124.719 88.2325 124.376C88.859 124.155 89.369 123.879 89.7615 123.546C90.1546 123.214 90.4848 122.86 90.7524 122.484L91.1188 124.028C90.888 124.345 90.5561 124.679 90.1237 125.029C89.6945 125.378 89.1499 125.668 88.4894 125.901Z" fill="#0A4D68"/>
<path d="M94.2786 110.734L95.7167 109.689L99.6587 115.113C99.9922 115.572 100.347 115.927 100.725 116.177C101.102 116.426 101.505 116.539 101.936 116.515C102.362 116.49 102.823 116.297 103.319 115.935C103.784 115.597 104.123 115.223 104.334 114.812C104.54 114.4 104.642 113.968 104.639 113.518C104.634 113.065 104.534 112.623 104.34 112.191L105.344 113.032L105.03 113.26C105.228 113.715 105.326 114.192 105.324 114.691C105.32 115.192 105.187 115.683 104.926 116.166C104.666 116.653 104.242 117.109 103.652 117.538C102.966 118.036 102.316 118.311 101.702 118.363C101.087 118.415 100.5 118.261 99.9422 117.903C99.3838 117.55 98.8493 117.022 98.3381 116.32L94.2786 110.734ZM100.104 106.5L101.555 105.445L107.894 114.168L106.443 115.223L104.989 113.084L104.86 113.044L100.104 106.5Z" fill="#0A4D68"/>
<path d="M111.407 100.497L110.055 99.9904L110.303 99.625C109.715 98.8894 109.383 98.1337 109.307 97.3572C109.235 96.5828 109.485 95.8159 110.057 95.0559C110.198 94.8697 110.34 94.7113 110.483 94.5804C110.624 94.4528 110.759 94.3453 110.888 94.2581L112.341 95.2117C112.182 95.3261 112.022 95.4617 111.859 95.6181C111.694 95.7771 111.53 95.9659 111.366 96.1834C110.88 96.8285 110.635 97.5258 110.633 98.2746C110.628 99.0267 110.886 99.767 111.407 100.497ZM116.724 104.396L115.648 105.824L107.035 99.3341L108.086 97.9406L110.573 99.9292L110.762 99.9026L116.724 104.396Z" fill="#0A4D68"/>
<path d="M126.041 87.4845C125.452 89.0199 124.635 90.0331 123.589 90.524C122.54 91.0101 121.319 90.9856 119.924 90.4506L118.129 89.7618C116.711 89.2178 115.758 88.4386 115.27 87.4244C114.78 86.4091 114.801 85.2055 115.334 83.8142C115.693 82.8787 116.167 82.1665 116.755 81.6767C117.341 81.1821 118.014 80.9002 118.775 80.8311C119.538 80.7582 120.362 80.8917 121.247 81.231L121.619 81.3741C121.84 81.4592 122.056 81.5533 122.266 81.657C122.481 81.7586 122.689 81.8634 122.89 81.9714L122.301 83.5052C121.978 83.3658 121.669 83.2377 121.376 83.1207C121.082 83.0042 120.811 82.8984 120.563 82.8032C119.949 82.5675 119.393 82.4681 118.895 82.5037C118.398 82.5362 117.963 82.7037 117.589 83.0063C117.218 83.3105 116.921 83.7541 116.697 84.337C116.364 85.2055 116.364 85.9517 116.698 86.5761C117.035 87.2015 117.671 87.6935 118.606 88.0525L119.567 88.4211L119.777 88.4902L120.737 88.8588C121.156 89.0194 121.557 89.1024 121.94 89.1066C122.326 89.1125 122.691 89.0295 123.034 88.8572C123.38 88.6864 123.695 88.4205 123.98 88.0605C124.265 87.7004 124.515 87.2388 124.73 86.6755C124.981 86.0219 125.129 85.3805 125.175 84.7518C125.22 84.1232 125.188 83.5031 125.08 82.8925L126.469 83.6041C126.579 84.1583 126.604 84.7641 126.545 85.422C126.486 86.0761 126.318 86.7638 126.041 87.4845ZM122.755 82.3234L120.009 89.4789L118.751 88.9965L121.497 81.841L122.755 82.3234Z" fill="#0A4D68"/>
<path d="M1.39221 65.4129C1.39221 62.4345 3.8068 60.02 6.78514 60.02C9.76348 60.02 12.1781 62.4345 12.1781 65.4129C12.1781 68.3912 9.76348 70.8058 6.78514 70.8058C3.8068 70.8058 1.39221 68.3912 1.39221 65.4129Z" fill="#0A4D68"/>
<path d="M118.932 65.4129C118.932 62.4345 121.346 60.02 124.325 60.02C127.303 60.02 129.718 62.4345 129.718 65.4129C129.718 68.3912 127.303 70.8058 124.325 70.8058C121.346 70.8058 118.932 68.3912 118.932 65.4129Z" fill="#0A4D68"/>
</g>
</g>
<defs>
<clipPath id="clip0_284_1446">
<rect width="130" height="130" fill="white" transform="translate(0.5)"/>
</clipPath>
<clipPath id="clip1_284_1446">
<rect width="130" height="130" fill="white" transform="translate(0.5)"/>
</clipPath>
<clipPath id="clip2_284_1446">
<rect width="79.777" height="61.1491" fill="white" transform="translate(23.8645 34.3298)"/>
</clipPath>
<clipPath id="clip3_284_1446">
<rect width="79.777" height="61.1491" fill="white" transform="translate(23.8645 34.3298)"/>
</clipPath>
</defs>
</svg>
